<svg width="800" height="450" viewBox="0 0 800 450" fill="none" xmlns="http://www.w3.org/2000/svg">
<path d="M606.672 63.1853C610.041 64.5345 613.41 66.0995 616.687 67.6717C634.073 76.0096 651.801 83.9776 668.995 92.6256C671.247 93.7589 683.076 106.102 684.858 108.394C681.354 128.293 676.284 147.852 671.602 167.493C671.104 169.576 667.963 171.904 667.18 174.518C667.572 175.386 667.568 175.472 667.735 176.37C668.208 178.93 670.439 181.794 671.474 184.019C673.285 186.114 678.579 199.693 678.607 202.46C678.824 202.968 679.098 203.223 679.461 203.635C682.606 204.747 691.215 204.299 693.076 201.63C696.452 196.777 696.516 196.413 702.176 194.063C710.434 189.953 721.274 199.946 719.072 209.208C718.435 212.58 717.282 215.644 716.951 219.006C717.19 220.098 717.528 221.486 717.695 222.559C718.577 225.899 719.733 229.783 719.918 233.182C720.402 239.842 718.769 249.511 714.112 254.316C708.594 260.01 701.401 265.498 693.186 265.898C686.825 266.207 684.84 265.163 679.159 264.18L676.768 264.069C678.198 279.182 681.058 294.417 682.403 309.068C689.216 313.385 696.73 322.043 702.429 327.882C704.464 329.97 705.403 341 705.368 343.953C700.714 347.168 685.328 353.92 679.184 356.915L656.842 367.774C653.782 369.275 646.895 372.953 643.899 373.796C639.961 372.715 628.121 367.703 624.567 365.516C622.276 364.107 615.264 356.638 613.026 354.525C603.567 345.597 593.676 334.163 584.131 325.704C565.845 330.71 546.958 339.27 528.928 345.45C525.438 346.647 517.359 350.347 514.381 350.512C510.226 350.742 504.06 348.888 498.984 348.529C494.963 351.945 490.413 355.971 486.244 359.07C472.632 354.066 459.014 347.037 445.587 341.446C443.72 340.669 442.375 339.281 441.059 338.684C434.032 344.535 428.361 343.629 419.535 343.766L419.144 344.066L418.258 344.811C416.799 345.697 416.148 346.199 414.483 346.51C408.674 349.394 394.46 358.206 389.86 359.433C388.97 367.17 389.363 380.323 387.02 386.815C385.352 379.544 384.938 366.999 384.444 359.12C381.117 358.928 377.645 358.782 374.343 358.434L373.834 358.217C370.011 357.271 365.982 357.605 362.244 357.022C352.624 355.42 345.119 355.503 335.535 356.541C320.733 358.146 305.471 359.821 290.706 361.482C271.725 363.62 275.426 365.349 261.634 353.065C258.952 355.804 251.807 363.456 249.31 365.103C246.451 365.153 241.599 365.053 238.677 364.751L234.041 364.705L232.987 369.642C232.611 368.027 232.287 366.266 231.953 364.63L224.706 363.976L133.432 357.601C130.655 355.624 118.988 343.98 116.887 340.359C110.402 329.191 103.783 317.953 97.5581 306.687C96.7175 305.165 112.855 281.226 114.968 278.53C115.541 277.798 123.517 274.867 125.32 273.97C118.163 266.851 117.236 253.651 120.208 244.449C120.284 243.736 120.716 242.353 120.922 241.602C119.256 239.187 116.04 237.001 114.758 234.334C113.667 232.063 112.737 228.978 111.885 226.544L106.525 211.32C103.06 201.744 99.655 192.147 96.3098 182.529C94.3883 177.165 92.459 172.423 90.736 166.96L92.7472 161.424C89.4023 156.933 84.2541 152.832 81.7707 149.244C80.8795 148.405 80.5172 148.142 80 146.991C81.1082 143.867 95.3022 148.505 98.1323 149.214C101.952 141.94 105.85 131.769 109.531 123.965L134.67 111.203C142.897 106.98 155.091 99.3725 163.814 97.9333C162.928 95.6188 158.913 82.4783 159.688 80.9876C159.998 80.39 162.161 79.8934 162.911 79.6754C168.863 77.9453 175.457 77.411 181.582 76.339C190.01 74.8639 198.575 72.8755 207.054 71.8519C207.976 71.7405 209.677 71.4407 210.503 71.9596C215.298 74.9763 247.416 109.141 248.602 113.283C249.68 112.79 251.426 111.579 252.487 110.887L253.273 110.352C259.857 105.407 264.288 99.7267 273.615 100.684C279.991 101.338 285.064 104.39 289.059 109.321L291.617 111.867C294.216 106.158 300.727 87.3069 303.671 84.3926C307.247 80.8542 319.237 74.9518 324.12 72.283C329.675 77.145 338.856 86.5688 342.912 92.5392C344 90.7006 344.777 90.1727 346.501 88.9449C353.198 81.3102 360.114 79.6281 367.409 87.4915C369.034 88.2687 371.8 88.1659 373.604 88.1015C386.954 87.6249 394.199 87.9496 402.845 99.2743C406.913 104.338 407.955 106.979 410.022 113.153C410.527 114.659 411.413 117.427 412.253 118.687C413.295 118.312 413.441 118.31 414.241 117.586C413.786 114.943 411.705 98.6308 412.63 96.9441C415.586 91.5688 421.239 82.0184 425.298 77.4715C426.654 77.7753 427.999 78.1324 429.326 78.5422C434.196 80.0674 440.315 82.5846 445.128 84.4695C450.461 86.5564 459.978 89.4777 464.464 92.1924C468.121 94.408 477.52 103.469 479.584 107.506C480.53 109.363 480.783 111.79 481.096 113.914L483.12 111.759C483.96 110.103 484.184 109.659 485.386 108.271C485.806 107.39 487.258 106.233 488.023 105.484C492.626 100.98 497.084 96.2967 500.947 91.1484C504.441 88.3629 507.732 82.7308 510.923 82.6327C512.054 83.2427 511.816 82.8991 512.189 83.8886C511.645 87.7035 510.613 91.105 509.688 94.806C506.305 108.346 502.047 121.87 497.664 135.124C496.689 138.065 496.009 142.716 495.173 145.913C494.825 150.151 494.682 151.043 495.358 155.272C498.308 150.999 526.359 98.3737 527.06 94.3874C526.502 92.2521 526.349 83.8972 528.433 82.489C529.832 82.4096 529.412 82.4221 530.771 83.1481C532.144 84.6068 534.065 87.3531 535.061 89.1312C543.311 84.95 554.183 78.5482 562.17 74.9382C566.667 79.0078 582.178 93.9925 584.953 98.6885C584.523 104.287 583.192 108.611 582.029 114.004C580.125 122.86 577.429 132.081 575.611 140.878C576.764 140.676 578.308 140.232 579.471 139.933C580.969 139.531 583.356 139.12 584.939 138.793C589.518 137.521 590.955 137.398 595.669 136.954C593.509 119.529 592.702 101.55 590.258 84.1223C589.923 81.7342 589.685 78.7147 589.66 76.3223C592.378 73.3646 603.033 65.1729 606.672 63.1853Z" fill="black"/>
<path d="M608.96 70.6208C611.835 72.6341 611.582 72.8756 615.129 72.9482C615.47 72.9549 617.598 75.4338 618.149 75.6042C622.031 77.7056 627.958 79.7029 631.569 81.916C632.458 81.19 632.746 81.099 633.814 80.6568L635.059 81.2341L635.18 83.5711C641.95 86.6638 648.656 89.8971 655.291 93.2684C657.813 94.4532 663.103 96.3455 664.284 98.6384C664.267 99.6073 664.203 100.257 664.082 101.22C662.47 107.965 660.947 114.73 659.51 121.515C658.557 125.879 657.205 130.993 656.91 135.372C656.056 132.527 646.532 126.499 643.682 127.044C643.59 126.357 643.458 126.013 643.245 125.369C642.053 124.838 641.651 125.23 640.118 125.583C640.263 128.39 641.569 127.059 641.822 129.607C643.195 143.313 645.543 156.896 647.194 170.572C647.3 171.457 647.443 172.372 646.777 173.057C646.454 174.104 648.898 189.893 649.286 192.709C650.484 202.15 651.772 211.58 653.142 220.997C653.765 225.168 654.875 230.271 655.337 234.189C656.262 241.966 656.899 254.723 658.93 262.126C660.673 265.425 660.848 272.316 660.809 276.048C661.097 284.661 663.544 294.866 663.993 303.235L664.131 303.372C666.7 305.872 667.97 304.949 669.443 306.082C672.271 308.265 680.916 312.816 681.934 315.824C682.802 316.461 682.955 316.401 684.083 316.463C684.317 316.691 684.602 316.972 684.947 317.306C685.015 319.605 685.104 322.017 685.139 324.31C685.15 324.989 685.072 325.646 685.015 326.166C682.382 328.222 668.824 334.341 664.928 336.147C655.426 340.554 645.305 345.901 635.784 350.017C633.874 350.581 631.882 351.472 630.028 352.243C625.916 350.535 621.618 348.72 617.484 347.013C616.445 346.583 616.122 346.99 615.282 347.488C614.759 347.037 614.247 346.1 613.453 345.38C609.188 341.514 605.488 336.746 601.5 332.718C592.538 323.664 581.228 313.68 573.106 304.028C567.158 305.726 558.89 309.159 552.757 311.294C535.04 317.458 517.106 324.795 499.329 330.697C496.664 329.785 493.192 329.336 490.399 329.045C498.56 322.117 506.608 314.934 514.733 307.942C518.191 304.966 526.623 297.953 529.259 294.814C530.006 288.306 530.426 281.532 531.184 274.852C540.316 270.747 549.815 267.297 559.004 263.326C563.455 261.403 565.806 260.288 570.776 260.212C577.408 260.11 584.117 259.738 590.749 259.419C591.78 259.266 593.378 259.073 594.331 258.826C601.229 261.507 608.782 269.39 615.061 271.936L615.848 270.944C615.535 270.006 615.293 266.674 615.143 265.395C614.485 260.04 613.905 254.676 613.407 249.304C611.379 230.419 609.497 211.519 607.765 192.605C602.112 193.7 592.143 197.827 586.451 199.991L556.82 211.31C551.277 213.452 545.435 215.903 539.857 217.831L540.177 216.666C547.837 210.123 545.158 203.843 547.107 195.666C547.965 192.058 551.483 187.91 553.742 184.981C555.165 184.751 558.513 184.661 560.086 184.573C562.032 184.451 571.217 181.853 574.078 181.128C581.357 179.327 600.696 175.34 605.997 172.566C604.606 165.693 604.328 157.663 603.531 150.615L598.415 101.968C597.622 94.433 597.149 87.4272 596.067 79.8732C597.729 77.9304 600.963 75.426 603.03 73.7239C605.353 72.7084 606.918 72.1087 608.96 70.6208Z" fill="#F5C005"/>
<path d="M633.671 118.061C636.531 119.052 637.268 119.59 639.335 121.81C639.755 122.925 639.922 124.382 640.117 125.583C640.263 128.39 641.569 127.059 641.821 129.607C643.195 143.313 645.543 156.896 647.193 170.572C647.3 171.457 647.442 172.372 646.777 173.057C636.812 174.889 627.2 173.293 620.906 164.424C617.21 159.184 615.726 152.696 616.787 146.37C618.192 138.401 621.963 134.413 628.175 130.062C624.966 123.423 626.342 119.911 633.671 118.061Z" fill="#FCFB09"/>
<path d="M660.809 276.048C659.546 277.905 654.928 279.591 652.541 278.899C647.354 277.683 643.423 271.14 645.845 266.047C648.46 260.556 654.078 260.885 658.93 262.126C660.673 265.425 660.848 272.317 660.809 276.048Z" fill="#FCFB09"/>
<path d="M615.847 270.944C621.447 274.717 635.926 284.819 640.743 288.933L638.968 290.443C637.549 289.904 633.006 286.691 631.661 285.705C629.854 284.867 626.221 282.292 624.681 281.009L623.635 280.303C621.998 279.228 620.444 278.277 619.006 276.935L618.626 276.884C618.814 276.125 618.857 275.91 618.91 275.131C618.078 273.657 616.854 273.821 615.271 272.156L615.061 271.936L615.847 270.944Z" fill="#444406"/>
<path d="M624.681 281.009C627.698 279.877 630.128 281.433 631.586 284.184L631.661 285.705C629.854 284.867 626.221 282.292 624.681 281.009Z" fill="#767409"/>
<path d="M619.007 276.935L620.341 275.878C622.244 276.134 624.105 277.885 625.428 279.161C624.663 279.921 624.354 279.77 623.635 280.303C621.999 279.228 620.444 278.278 619.007 276.935Z" fill="#8C8B07"/>
<path d="M590.749 259.419C591.78 259.266 593.378 259.073 594.331 258.826C601.229 261.507 608.782 269.39 615.061 271.936L615.271 272.156C616.854 273.821 618.078 273.658 618.911 275.132C618.857 275.91 618.815 276.125 618.626 276.884C612.101 273.377 600.173 264.477 594.626 259.663L590.749 259.419Z" fill="#8C8B07"/>
<path d="M640.744 288.933C641.925 288.887 643.134 288.982 643.896 289.975C643.718 293.39 638.317 294.031 638.968 290.443L640.744 288.933Z" fill="#FCFB09"/>
<path d="M553.742 184.981C555.165 184.751 558.513 184.661 560.086 184.573C558.919 185.666 557.738 186.741 556.535 187.795C555.575 186.935 554.454 186.038 553.742 184.981Z" fill="#FBD655"/>
<path d="M633.813 80.657L635.059 81.2343L635.18 83.5712L631.569 81.9162C632.458 81.1902 632.746 81.0991 633.813 80.657Z" fill="#928E06"/>
<path d="M336.826 251.345C338.85 251.88 340.288 253.134 342.339 253.942C350.651 257.215 358.645 261.201 366.787 264.854C372.118 267.302 379.205 270.148 384.034 273.16L383.853 273.169C385.282 273.934 386.789 274.777 388.245 275.468C388.05 276.661 386.85 276.524 387.105 277.714C389.932 290.921 390.847 304.926 393.982 318.053C392.469 319.822 387.737 324.398 390.667 326.821C392.933 326.672 397.569 321.546 399.443 319.747C397.958 310.325 395.984 300.996 394.708 291.533C394.521 290.141 394.327 288.591 394.07 287.218C398.249 287.293 398.838 278.92 400.24 275.414L400.395 275.033C402.221 276.356 404.828 278.065 406.212 279.75L406.24 280.223C405.788 280.553 405.23 280.765 405.283 281.43C406.336 294.385 407.272 307.85 407.393 320.852C404.532 322.032 402.246 323.386 399.557 324.912C397.256 326.185 391.686 329.175 389.901 330.723C389.816 334.573 391.027 334.452 392.519 337.826C393.962 336.572 397.046 333.714 398.629 333.142C398.686 334.302 397.43 335.344 396.604 336.064C396.851 337.944 396.905 338.394 398.067 339.823L398.214 340.005C399.775 341.928 401.517 343.014 403.935 343.418C407.09 343.661 410.239 344 413.377 344.436C415.002 344.581 416.628 344.706 418.258 344.811C416.799 345.698 416.148 346.199 414.483 346.51C408.673 349.395 394.46 358.206 389.86 359.433C388.97 367.17 389.363 380.324 387.02 386.815C385.352 379.545 384.938 366.999 384.444 359.12C381.117 358.928 377.645 358.783 374.343 358.434L373.833 358.217C370.011 357.271 365.982 357.605 362.243 357.022C352.624 355.42 345.118 355.503 335.535 356.542C320.733 358.146 305.471 359.821 290.706 361.482C271.725 363.62 275.426 365.349 261.634 353.065C258.951 355.805 251.807 363.456 249.31 365.103C246.451 365.153 241.598 365.054 238.677 364.751L234.041 364.705C234.978 361.038 235.315 348.935 235.497 344.512C237.787 341.894 239.667 339.86 242.138 337.417L241.823 343.217C242.354 342.881 244.82 342.042 244.813 342.05C246.927 339.534 246.933 335.405 251.167 335.066C253.495 332.352 256.196 329.657 258.696 327.075C260.889 326.914 263.233 326.882 265.442 326.813L260.562 325.145L261.583 323.935C269.811 315.749 278.524 305.819 287.414 298.287C288.764 297.143 296.166 296.507 298.571 296.153L323.323 292.271C330.796 291.122 338.745 290.599 345.47 287.125C341.574 284.691 337.276 282.561 333.272 280.185C341.17 275.626 342.655 263.675 341.021 255.486C339.481 254.234 337.634 253.062 336.826 251.345Z" fill="#F5C005"/>
<path d="M376.778 331.478L377.484 331.898C377.528 332.974 377.598 334.937 376.718 335.675C377.633 335.986 377.527 335.8 378.056 336.436L378.543 337.109C380.366 339.057 381.341 340.421 382.892 342.579C375.427 343.02 365.652 343.003 358.559 344.056C360.43 344.652 362.231 345.282 364.171 345.605L363.972 346.261C364.513 346.631 365.212 347.019 365.516 347.564L366.836 347.989L365.456 348.577C366.387 349.496 369.095 350.393 370.355 351.267C372.187 352.538 374.196 355.412 374.111 357.68L373.833 358.217C370.011 357.271 365.982 357.605 362.243 357.022C352.624 355.42 345.118 355.503 335.535 356.542C320.732 358.146 305.471 359.821 290.706 361.482C271.725 363.62 275.426 365.349 261.634 353.065C258.951 355.805 251.807 363.456 249.31 365.103C246.451 365.153 241.598 365.054 238.677 364.751L234.041 364.705C234.978 361.038 235.315 348.935 235.497 344.512C237.787 341.894 239.667 339.86 242.138 337.417L241.823 343.217C242.354 342.881 244.82 342.042 244.813 342.05C246.927 339.534 246.933 335.405 251.167 335.066C253.992 337.053 259.401 341.878 262.23 344.274C276.637 342.13 291.86 340.764 306.382 339.296L355.902 333.829C362.872 333.002 369.856 332.575 376.778 331.478Z" fill="black"/>
<path d="M242.138 337.417L241.823 343.217C240.894 348.232 241.273 353.299 240.401 358.313C240.363 358.526 238.568 360.362 238.504 361.105C238.392 362.4 237.906 363.574 238.677 364.751L234.041 364.705C234.978 361.037 235.315 348.935 235.497 344.512C237.787 341.894 239.667 339.86 242.138 337.417Z" fill="#3C3A3D"/>
<path d="M376.719 335.675C377.633 335.986 377.528 335.8 378.056 336.435L378.544 337.109C380.366 339.057 381.341 340.421 382.892 342.578C375.427 343.02 365.653 343.003 358.56 344.055C360.43 344.652 362.231 345.282 364.171 345.605L363.973 346.261C361.217 346.079 359.548 346.458 358.281 344.029L358.591 343.453C360.55 342.334 363.818 342.684 366.008 342.541C366.725 342.495 368.491 339.855 368.944 339.129L368.613 338.612C366.635 338.297 363.945 337.65 362.229 336.618L362.561 336.211C363.458 336.026 364.281 336.182 365.201 336.275C369.042 336.107 372.881 335.907 376.719 335.675Z" fill="#373638"/>
<path d="M376.718 335.675C377.633 335.986 377.527 335.8 378.056 336.435L378.543 337.109C375.721 338.486 367.945 338.268 365.2 336.275C369.041 336.107 372.881 335.907 376.718 335.675Z" fill="#767409"/>
<path d="M384.424 327.787C384.315 321.277 385.309 304.326 386.776 297.95C390.566 311.193 388.451 319.018 389.901 330.723C389.816 334.572 391.027 334.451 392.519 337.825C393.962 336.572 397.046 333.714 398.629 333.142C398.686 334.301 397.43 335.344 396.604 336.064C396.852 337.944 396.905 338.394 398.068 339.822L398.214 340.005C399.775 341.927 401.517 343.014 403.935 343.417C407.09 343.661 410.239 344 413.377 344.435C415.002 344.58 416.628 344.706 418.258 344.811C416.799 345.697 416.148 346.198 414.483 346.51C408.673 349.394 394.46 358.206 389.86 359.433C388.97 367.17 389.363 380.323 387.02 386.815C385.352 379.544 384.938 366.999 384.444 359.12C381.117 358.928 377.645 358.782 374.343 358.434L373.833 358.217L374.111 357.68C374.196 355.412 372.187 352.538 370.355 351.267C369.095 350.393 366.387 349.495 365.456 348.577L366.836 347.989L365.516 347.564C365.212 347.019 364.513 346.63 363.972 346.261L364.171 345.604C362.231 345.282 360.43 344.652 358.56 344.055C365.652 343.003 375.427 343.02 382.892 342.578C381.341 340.421 380.366 339.057 378.543 337.109L378.056 336.435C377.527 335.8 377.633 335.986 376.718 335.674C377.598 334.937 377.528 332.973 377.484 331.897L376.778 331.478C380.93 330.677 381.311 330.618 384.424 327.787Z" fill="#FEFEFD"/>
<path d="M413.377 344.435C415.003 344.58 416.628 344.706 418.258 344.811C416.799 345.697 416.148 346.198 414.483 346.51C408.674 349.394 394.46 358.206 389.86 359.433C389.929 356.101 390.123 353.446 390.44 350.122C392.542 351.546 394.687 352.907 396.872 354.201C392.639 348.22 392.264 346.709 400.256 346.266C401.989 345.108 410.257 346.567 412.697 345.559C413.163 345.365 413.153 345.026 413.377 344.435Z" fill="#2E2D2D"/>
<path d="M413.377 344.435C415.003 344.58 416.628 344.706 418.258 344.811C416.799 345.697 416.148 346.198 414.483 346.51C411.207 345.904 404.145 346.515 400.256 346.266C401.989 345.108 410.257 346.567 412.697 345.559C413.163 345.365 413.153 345.026 413.377 344.435Z" fill="#E2E2E4"/>
<path d="M364.171 345.604C369.368 346.133 374.374 346.169 379.549 346.48L379.967 351.037C378.994 352.256 377.657 354.037 376.608 355.118L374.111 357.68C374.196 355.412 372.187 352.538 370.355 351.267C369.095 350.393 366.387 349.495 365.457 348.577L366.836 347.989L365.516 347.564C365.212 347.019 364.513 346.63 363.973 346.261L364.171 345.604Z" fill="#2E2D2D"/>
<path d="M376.778 331.478C380.93 330.677 381.311 330.618 384.425 327.787C384.626 331.605 384.252 335.812 384.004 339.658C382.691 338.65 379.973 336.317 378.562 336.121L378.056 336.436C377.528 335.8 377.633 335.986 376.719 335.675C377.599 334.937 377.529 332.974 377.484 331.898L376.778 331.478Z" fill="#62615D"/>
<path d="M377.384 355.835C379.565 353.823 381.896 351.746 384.026 349.703C384.157 352.819 384.255 356.012 384.444 359.12C381.117 358.928 377.645 358.782 374.343 358.434L373.833 358.217L374.111 357.68L376.608 355.118L377.384 355.835Z" fill="#3C3A3D"/>
<path d="M376.608 355.119L377.384 355.835C376.496 356.851 375.579 358.21 374.343 358.434L373.833 358.217L374.111 357.68L376.608 355.119Z" fill="#E2E2E4"/>
<path d="M403.935 343.417C402.192 343.603 392.883 342.215 391.977 341.789C392.526 340.23 395.36 337.237 396.604 336.064C396.852 337.944 396.905 338.394 398.068 339.822L398.214 340.005C399.775 341.927 401.517 343.014 403.935 343.417Z" fill="#ABA9A8"/>
<path d="M346.621 287.387C347.782 288.048 348.244 288.759 348.488 290.009C347.549 291.82 345.884 291.83 344.038 292.123C343.073 291.973 342.785 291.849 342.422 291.029C343.138 289.898 344.987 288.986 346.361 287.643L346.621 287.387Z" fill="#FCFB09"/>
<path d="M212.762 253.018L213.054 252.332L214.104 252.063L214.5 252.313C213.732 255.548 217.365 256.607 218.36 260.199C219.293 263.566 220.484 267.123 221.536 270.449C222.338 272.784 220.751 275.448 223.14 277.22C222.553 279.455 221.339 282.038 223.955 283.404C226.249 283.283 227.626 280.521 228.61 278.644L229.353 280.054C230.85 280.05 231.552 280.063 233.036 279.788C233.983 281.186 234.07 282.862 234.263 284.557C234.871 285.824 234.586 285.801 235.782 286.594C237.994 288.061 240.52 294.545 240.763 297.065C241.296 297.723 241.446 297.733 242.244 298.093C243.261 298.277 244.389 298.187 244.745 299.292C243.941 299.48 240.801 299.9 240.629 300.283C239.444 302.93 239.355 314.481 242.599 315.212C244.321 313.781 245.007 313.245 246.951 312.159C244.645 314.961 242.005 317.857 239.811 320.632C244.457 321.713 242.521 323.206 245.658 323.737C248.452 324.209 252.227 324.395 255.135 324.581C256.745 324.775 258.993 325.111 260.562 325.145L265.442 326.812C263.234 326.882 260.889 326.914 258.696 327.075C256.197 329.657 253.496 332.352 251.167 335.066C246.934 335.405 246.927 339.534 244.814 342.05C244.821 342.042 242.354 342.881 241.823 343.217L242.139 337.417C239.667 339.86 237.788 341.894 235.497 344.512C235.315 348.935 234.978 361.038 234.041 364.705L232.987 369.642C232.612 368.027 232.287 366.266 231.953 364.63L224.706 363.976L226.149 362.642C226.263 361.422 225.336 360.315 224.986 358.768C224.463 356.46 224.35 347.191 223.764 345.859C215.292 344.354 198.265 344.145 189.156 343.479L153.505 340.971C143.75 340.243 133.037 339.249 123.28 339.166C120.548 336.012 116.881 329.172 114.673 325.311C111.233 319.295 107.267 312.882 104.101 306.77C107.805 300.05 114.625 290.609 118.907 283.677C124.294 281.282 155.414 268.409 159.518 269.388C159.862 269.47 160.157 270.236 160.34 270.555C162.795 274.33 164.199 278.778 165.921 282.923C166 283.113 167.435 283.052 167.628 283.04L168.232 283.439C177.393 286.852 192.768 287.713 202.059 291.461C202.706 291.722 202.003 291.482 202.724 291.712C203.339 291.691 203.344 291.643 203.948 291.476L204.475 290.363L204.304 289.531L204.807 289.228L206.072 289.643L206.681 290.141C207.783 290.056 208.664 289.071 209.575 288.299C211.001 283.402 211.193 266.935 211.576 260.585L212.762 253.018Z" fill="#F5C005"/>
<path d="M212.761 253.018L213.054 252.332L214.104 252.063L214.5 252.313C213.731 255.548 217.365 256.607 218.36 260.199C219.293 263.566 220.484 267.123 221.536 270.449C222.337 272.784 220.75 275.448 223.14 277.22C222.552 279.455 221.338 282.038 223.955 283.404C226.249 283.283 227.625 280.521 228.609 278.644L229.353 280.054C230.85 280.05 231.551 280.063 233.035 279.788C233.983 281.186 234.069 282.862 234.262 284.557C234.87 285.824 234.585 285.801 235.782 286.594C237.994 288.061 240.52 294.545 240.763 297.065C241.296 297.723 241.445 297.733 242.243 298.093C243.26 298.277 244.389 298.187 244.745 299.292C243.941 299.48 240.801 299.9 240.629 300.283C239.444 302.93 239.354 314.481 242.599 315.212C244.32 313.781 245.006 313.245 246.95 312.159C244.645 314.961 242.004 317.857 239.811 320.632C244.456 321.713 242.52 323.206 245.658 323.737C248.451 324.209 252.227 324.395 255.135 324.581C256.745 324.775 258.992 325.111 260.562 325.145L265.442 326.812C263.233 326.882 260.889 326.914 258.696 327.075C256.197 329.657 253.495 332.352 251.167 335.066C246.934 335.405 246.927 339.534 244.813 342.05C244.82 342.042 242.354 342.881 241.823 343.217L242.139 337.417C239.667 339.86 237.787 341.894 235.497 344.512C235.315 348.935 234.978 361.038 234.041 364.705L232.987 369.642C232.611 368.027 232.287 366.266 231.952 364.63L224.706 363.976L226.149 362.642C226.263 361.422 225.336 360.315 224.985 358.768C224.462 356.46 224.349 347.191 223.764 345.859C225.811 345.882 227.085 345.902 229.144 346.198C228.08 343.803 225.5 338.083 223.332 336.805L221.85 338.048L220.664 337.653L221.827 336.324C221.224 335.449 221.138 335.301 220.244 334.739C217.75 334.377 217.213 334.753 214.991 335.96L214.339 337.383L213.752 342.739C212.859 340.239 212.543 339.297 212.091 336.645C211.544 335.902 206.616 333.376 205.592 330.435C205.018 328.787 204.391 326.272 205.056 324.599L205.757 323.774C205.52 321.102 205.474 318.429 205.277 315.76C205.095 313.284 205.293 310.951 203.074 309.505C202.249 310.303 201.96 310.73 200.85 311.009C200.859 310.039 201.269 309.85 201.968 308.941L201.75 307.893C199.566 306.902 191.825 302.3 189.986 300.831C189.587 299.507 189.327 299.315 188.268 298.448L187.971 298.208C186.809 298.061 186.589 298.09 185.572 297.57L185.672 297.215C187.675 296.638 190.246 296.595 192.366 296.467C195.267 295.535 196.408 296.962 198.492 294.769C198.672 293.673 198.659 293.401 199.17 292.444C200.193 291.783 201.493 291.808 202.724 291.712C203.339 291.691 203.344 291.643 203.948 291.476L204.475 290.363L204.303 289.531L204.807 289.228L206.071 289.643L206.681 290.141C207.783 290.056 208.663 289.071 209.575 288.299C211.001 283.402 211.193 266.935 211.576 260.585L212.761 253.018Z" fill="#FEFEFD"/>
<path d="M252.331 327.226C254.337 327.069 256.661 327.098 258.696 327.074C256.197 329.657 253.495 332.352 251.167 335.066C246.934 335.405 246.927 339.534 244.813 342.05C244.821 342.041 242.354 342.881 241.823 343.217L242.139 337.417C239.667 339.86 237.787 341.894 235.497 344.512C235.316 341.8 236.155 333.601 236.39 330.605L242.951 335.543C241.514 332.711 239.482 330.159 237.561 327.641C241.271 327.502 248.996 326.949 252.331 327.226Z" fill="#FAD53A"/>
<path d="M252.331 327.226C254.337 327.069 256.661 327.098 258.696 327.074C256.197 329.657 253.495 332.352 251.167 335.066C246.934 335.405 246.927 339.534 244.813 342.05C244.821 342.041 242.354 342.881 241.823 343.217L242.139 337.417C245.287 334.122 249.519 330.486 252.331 327.226Z" fill="#1D1E1E"/>
<path d="M212.761 253.018L213.054 252.332L214.104 252.063L214.5 252.313C213.731 255.548 217.365 256.607 218.36 260.199C219.293 263.566 220.484 267.123 221.536 270.449C222.337 272.784 220.75 275.448 223.14 277.22C222.552 279.455 221.338 282.038 223.955 283.404C226.249 283.283 227.625 280.521 228.609 278.644L229.353 280.054C228.342 281.049 226.06 283.295 225.682 284.664L224.343 286.16C222.945 287.565 221.174 289.26 219.858 290.692C218.671 290.017 216.786 288.139 215.715 287.145C216.746 285.589 217.703 283.909 218.654 282.297L221.697 277.591C220.611 274.953 219.479 272.334 218.3 269.736C217.502 267.455 216.464 264.329 214.762 262.661C214.57 260.876 213.996 254.099 213.247 252.947L212.761 253.018Z" fill="#2E2D2D"/>
<path d="M229.353 280.055C230.85 280.05 231.552 280.063 233.036 279.788C232.392 281.431 232.32 281.772 232.102 283.528L231.627 287.938L230.971 296.555C225.956 296.179 223.598 295.836 218.745 294.613L220.583 292.465C221.748 291.218 224.033 288.96 224.701 287.45C224.916 286.964 224.64 286.736 224.343 286.16L225.683 284.664C226.06 283.296 228.343 281.049 229.353 280.055Z" fill="#FBD655"/>
<path d="M229.353 280.055C230.85 280.05 231.552 280.063 233.036 279.788C232.392 281.431 232.32 281.772 232.102 283.528C229.593 285.328 227.502 288.902 226.332 288.841C225.342 287.081 226.098 286.45 225.683 284.664C226.06 283.296 228.343 281.049 229.353 280.055Z" fill="#FCFB09"/>
<path d="M225.682 284.664C226.098 286.449 225.341 287.081 226.332 288.84C227.501 288.902 229.593 285.328 232.101 283.527L231.627 287.937C229.772 288.74 229.364 287.683 228.022 288.689C225.839 290.328 224.444 296.086 220.582 292.465C221.748 291.218 224.032 288.959 224.701 287.45C224.916 286.964 224.64 286.736 224.343 286.16L225.682 284.664Z" fill="#FAD53A"/>
<path d="M223.764 345.859C225.812 345.882 227.085 345.901 229.144 346.198L230.817 346.318C230.974 351.652 231.321 359.387 231.953 364.63L224.706 363.975L226.149 362.641C226.263 361.421 225.336 360.315 224.985 358.768C224.463 356.459 224.35 347.19 223.764 345.859Z" fill="#2E2D2D"/>
<path d="M210.141 303.351C210.554 310.255 210.864 317.166 211.07 324.08C209.52 324.226 206.445 324.399 205.105 324.906L205.056 324.599L205.757 323.774C205.52 321.102 205.474 318.429 205.278 315.76C205.095 313.284 205.293 310.951 203.074 309.505L210.141 303.351Z" fill="#FBD655"/>
<path d="M187.971 298.208C195.014 299.215 202.113 299.777 209.227 299.89C206.559 302.374 203.728 307.632 201.969 308.941L201.75 307.893C199.567 306.902 191.825 302.3 189.986 300.831C189.587 299.507 189.327 299.315 188.269 298.448L187.971 298.208Z" fill="#FAD53A"/>
<path d="M235.353 299.696C238.531 299.57 241.524 299.306 244.745 299.292C243.941 299.48 240.801 299.9 240.629 300.283C239.444 302.93 239.355 314.482 242.599 315.213C240.567 317.251 238.307 319.199 236.149 321.117C236.327 315.538 235.559 305.659 235.353 299.696Z" fill="#FCDC63"/>
<path d="M214.762 262.662C216.465 264.329 217.502 267.455 218.301 269.736C219.479 272.334 220.611 274.953 221.697 277.591L218.654 282.297C217.703 283.91 216.747 285.589 215.715 287.145C216.786 288.139 218.672 290.018 219.858 290.693C219.528 291.126 216.944 293.401 216.383 293.908C215.777 288.845 215.865 282.095 215.604 276.845C215.374 272.204 214.878 267.207 214.762 262.662Z" fill="#C11FEF"/>
<path d="M215.191 327.068L228.689 327.598C225.975 330.77 225.573 332.597 221.827 336.324C221.225 335.45 221.138 335.301 220.245 334.74C217.75 334.377 217.213 334.754 214.991 335.96L214.339 337.384C214.67 333.949 214.954 330.51 215.191 327.068Z" fill="#FAD53A"/>
<path d="M230.091 330.571C230.292 334.198 230.98 342.961 230.817 346.318L229.144 346.198C228.08 343.803 225.501 338.083 223.332 336.805C224.829 334.983 228.199 332.194 230.091 330.571Z" fill="#FBD655"/>
<path d="M212.091 336.645C211.544 335.902 206.616 333.376 205.592 330.435C205.018 328.787 204.391 326.272 205.056 324.599L205.105 324.906C206.014 325.754 207.114 325.806 208.383 326.056C210.134 326.338 210.049 326.034 211.079 327.072C211.579 328.869 211.258 329.744 211.483 331.48L212.091 336.645Z" fill="#FAD53A"/>
<path d="M234.262 284.557C234.87 285.824 234.585 285.801 235.782 286.595C237.994 288.061 240.52 294.545 240.763 297.065C241.296 297.723 241.445 297.733 242.243 298.094C240.378 297.88 237.244 297.179 235.296 296.796L234.262 284.557Z" fill="#FAD53A"/>
<path d="M204.475 290.363C205.338 291.169 205.493 291.352 206.131 292.346C204.139 294.203 206.09 294.705 203.704 296.19C200.765 296.305 195.177 296.651 192.366 296.467C195.267 295.535 196.409 296.961 198.492 294.769C198.672 293.673 198.659 293.401 199.171 292.443C200.193 291.783 201.493 291.808 202.724 291.711C203.339 291.69 203.344 291.643 203.948 291.476L204.475 290.363Z" fill="#FCDC63"/>
<path d="M206.131 292.346L209.074 296.026L203.704 296.191C206.09 294.705 204.139 294.204 206.131 292.346Z" fill="#FDEE84"/>
<path d="M217.361 299.869L230.804 299.668C230.676 303.636 230.387 308.622 230.428 312.512C230.319 314.941 230.124 317.835 230.137 320.232C229.572 319.809 226.756 317.768 226.484 317.392C225.47 316.695 224.924 316.527 223.802 316.103C224.101 316.81 224.501 317.86 224.901 318.478C226.264 319.862 227.53 321.584 228.732 323.128C225.87 323.376 219.969 323.818 217.183 323.497L216.045 323.582L215.582 323.101C215.26 318.548 216.09 308.05 216.365 303.081C217.763 304.203 219.873 306.249 221.415 306.832L221.87 306.103C220.21 304.09 218.998 301.66 217.361 299.869Z" fill="#FAD53A"/>
<path d="M217.361 299.869L230.804 299.668C230.676 303.636 230.387 308.622 230.428 312.512C230.319 314.941 230.124 317.835 230.137 320.232C229.572 319.809 226.756 317.768 226.484 317.392C225.469 316.695 224.924 316.527 223.802 316.103C229.562 315.411 230.501 303.262 222.817 305.063C222.192 305.21 222.198 305.545 221.87 306.103C220.21 304.09 218.998 301.66 217.361 299.869Z" fill="#FBD655"/>
<path d="M226.484 317.392C227.68 316.595 229.914 313.872 230.428 312.511C230.319 314.941 230.124 317.835 230.137 320.232C229.572 319.809 226.756 317.768 226.484 317.392Z" fill="#FCDC63"/>
<path d="M224.901 318.478C226.264 319.862 227.53 321.584 228.732 323.128C225.87 323.376 219.969 323.818 217.183 323.497C218.309 323.195 220.738 323.001 221.99 322.865C223.255 321.188 224.128 320.502 224.901 318.478Z" fill="#FCDC63"/>
<path d="M160.34 270.555C162.795 274.33 164.199 278.778 165.921 282.922C166 283.113 167.435 283.052 167.628 283.04L168.232 283.439C167.299 283.714 167.672 284.083 166.396 284.707C163.449 283.755 160.187 273.805 160.34 270.555Z" fill="#444406"/>
<path d="M220.664 337.653L221.85 338.048C220.768 338.962 220.773 339.272 219.555 339.412C219.677 338.475 219.942 338.455 220.664 337.653Z" fill="#FDEE84"/>
<path d="M253.273 110.352C259.857 105.407 264.288 99.7267 273.615 100.684C279.991 101.338 285.064 104.39 289.059 109.321L291.617 111.867L290.465 115.052C288.287 120.448 284.46 131.101 281.944 135.715C284.776 142.184 287.461 148.32 290.052 154.892C288.302 159.704 286.379 164.577 284.411 169.309C278.955 182.424 273.886 195.805 268.302 208.858C267.228 211.927 265.808 215.097 264.49 218.067C254.264 205.915 252.671 206.152 238.679 200.995C237.029 200.543 234.495 199.555 232.817 198.961L230.458 198.134L226.969 196.876C232.412 178.736 236.216 159.622 241.3 141.351C242.164 138.248 242.8 134.701 243.921 131.712C245.509 125.664 246.916 119.23 248.602 113.283C249.68 112.79 251.426 111.579 252.487 110.887L253.273 110.352Z" fill="#9C03F2"/>
<path d="M248.602 113.283C249.68 112.79 251.426 111.578 252.487 110.887C255.189 115.34 254.08 116.793 254.345 121.768C254.385 122.526 255.103 124.899 255.307 125.83C255.3 126.563 255.444 127.123 255.082 127.573C253.798 129.166 253.076 131.147 251.862 132.755C253.796 137.492 248.757 148.018 247.676 153.014C247.325 154.639 246.043 157.574 246.17 159.098L246.727 159.347C246.225 160.093 246.236 160.338 245.549 160.694C245.414 159.742 245.419 159.334 245.429 158.366C244.986 158.709 244.317 159.875 243.98 160.403L243.933 159.726L242.984 159.781C242.382 160.619 242.689 163.438 243.197 164.428L243.938 164.875C243.596 166.286 242.404 170.083 242.719 171.122L242.555 171.546L241.518 171.819C241.324 172.79 241.492 172.682 241.943 173.796C240.922 173.952 240.863 173.935 240.128 174.606C240.515 178.337 240.516 180.446 239.427 184.088C237.98 188.93 232.635 196.047 238.092 200.529C238.285 200.687 238.481 200.842 238.679 200.995C237.029 200.543 234.495 199.555 232.817 198.961L230.458 198.134L226.969 196.876C232.412 178.736 236.216 159.622 241.3 141.351C242.164 138.247 242.8 134.701 243.921 131.712C245.509 125.664 246.916 119.229 248.602 113.283Z" fill="#7E13AE"/>
<path d="M243.921 131.712C246.045 130.518 244.408 128.31 247.193 128.556L247.416 128.937C247.135 129.78 246.173 131.943 246.146 132.718C246.062 135.106 246.429 137.851 245.895 140.299C245.203 143.478 240.477 163.162 238.941 164.427C238.576 164.204 238.214 163.978 237.854 163.748C237.438 164.001 237.493 163.849 237.401 164.274C236.541 168.218 236.719 172.703 235.978 176.67C234.919 182.338 233.04 187.788 231.394 193.293C230.909 194.916 230.919 196.485 230.458 198.134L226.969 196.877C232.412 178.736 236.216 159.622 241.3 141.351C242.164 138.248 242.8 134.701 243.921 131.712Z" fill="#670E97"/>
<path d="M232.817 198.961C233.147 197.7 233.623 197.73 233.598 196.192C233.794 192.53 234.733 185.51 236.024 182.186C236.813 180.154 238.247 170.973 238.532 170.385C239.568 171.511 239.118 173.115 240.128 174.607C240.515 178.337 240.517 180.446 239.428 184.088C237.98 188.93 232.635 196.047 238.092 200.529C238.286 200.687 238.481 200.842 238.679 200.995C237.029 200.543 234.496 199.555 232.817 198.961Z" fill="#870DC4"/>
<path d="M242.302 174.354C250.304 182.475 253.802 185.728 265.795 186.713C266.415 188.81 266.822 190.418 267.845 192.38C266.821 199.118 266.581 204.012 265.803 210.464L265.235 210.835L264.565 210.469C261.606 206.154 263.809 196.347 262.315 191.154C258.663 186.059 248.95 190.056 242.302 174.354Z" fill="#C11FEF"/>
<path d="M253.273 110.352C259.857 105.407 264.288 99.7267 273.615 100.684C279.991 101.338 285.064 104.39 289.059 109.321L291.617 111.867L290.465 115.052C288.85 113.8 285.68 108.935 283.137 106.624C274.632 101.575 266.641 101.906 259.236 108.75C257.491 110.184 255.561 111.863 253.273 110.352Z" fill="#DB3DE9"/>
<path d="M241.942 173.796C241.492 172.683 241.323 172.79 241.518 171.819L242.554 171.546C245.751 175.635 248.51 178.538 253.142 181.087C254.699 181.942 256.332 182.652 258.019 183.208C259.716 183.755 261.855 184.161 263.608 184.535C267.847 185.44 268.731 185.571 268.158 190.206C268.065 190.932 267.961 191.657 267.844 192.38C266.822 190.418 266.415 188.81 265.794 186.713C253.802 185.728 250.304 182.475 242.301 174.354L241.942 173.796Z" fill="#DB3DE9"/>
<path d="M253.273 110.353C255.561 111.863 257.491 110.184 259.236 108.75C255.917 114.592 255.373 119.263 255.308 125.83C255.103 124.899 254.385 122.526 254.345 121.768C254.081 116.793 255.189 115.34 252.487 110.887L253.273 110.353Z" fill="#C11FEF"/>
<path d="M263.617 241.73L264.865 241.166C265.301 241.847 265.725 244.14 266.156 245.246C270.788 257.104 276.975 268.176 282.496 279.619C284.207 283.165 286.384 287.064 287.582 290.817C284.162 294.375 280.907 297.983 277.475 301.56C271.613 307.67 264.659 313.965 259.011 320.19C259.561 322.216 259.893 322.503 261.583 323.935L260.562 325.145C258.992 325.111 256.745 324.775 255.135 324.582C252.227 324.396 248.451 324.209 245.658 323.737C242.52 323.206 244.456 321.713 239.811 320.632C242.005 317.858 244.645 314.961 246.95 312.159C245.006 313.246 244.321 313.781 242.599 315.213C239.354 314.482 239.444 302.93 240.629 300.283C240.801 299.9 243.941 299.48 244.745 299.292C244.389 298.187 243.26 298.277 242.243 298.094C241.445 297.733 241.296 297.723 240.763 297.065C240.52 294.546 237.994 288.062 235.782 286.595C234.585 285.801 234.87 285.825 234.262 284.557C234.069 282.862 233.983 281.187 233.035 279.788C231.552 280.063 230.85 280.05 229.353 280.054L228.609 278.644C227.151 274.098 224.985 269.239 223.124 264.801C225.312 263.329 226.871 261.767 229.402 260.674C235.433 258.071 241.227 255.177 247.06 252.161C250.592 250.335 262.934 246.663 264.597 243.289C264.324 242.043 264.595 242.451 263.617 241.73Z" fill="#F5C005"/>
<path d="M259.011 320.19C259.561 322.216 259.893 322.503 261.583 323.935L260.562 325.145C258.992 325.111 256.745 324.775 255.135 324.582L259.011 320.19Z" fill="#2E2D2D"/>
<path d="M251.039 254.127C251.978 254.057 252.581 253.896 253.372 254.361L253.44 254.973C251.816 256.844 243.018 260.067 240.28 261.213L239.521 261.584L238.753 261.198C238.091 260.134 238.147 260.553 238.202 259.442C239.733 258.365 248.88 254.913 251.039 254.127Z" fill="black"/>
<path d="M702.177 194.063C710.434 189.953 721.274 199.946 719.072 209.208C718.435 212.58 717.282 215.644 716.951 219.006C717.19 220.098 717.528 221.486 717.695 222.56C718.577 225.9 719.733 229.783 719.918 233.182C720.402 239.842 718.769 249.511 714.112 254.316C708.594 260.01 701.401 265.498 693.186 265.898C686.825 266.207 684.84 265.163 679.159 264.18C679.315 262.724 679.07 262.951 679.902 262.014C680.991 261.61 682.115 262.077 683.314 262.381L683.293 262.283C682.748 259.837 683.962 257.402 683.695 255.009C681.93 239.239 679.294 223.706 676.764 208.058C676.686 207.57 676.96 206.646 677.131 206.164C677.127 205.364 678.202 203.401 678.607 202.46C678.824 202.968 679.098 203.223 679.461 203.635C682.606 204.747 691.215 204.299 693.076 201.63C696.452 196.778 696.516 196.413 702.177 194.063Z" fill="#9C03F2"/>
<path d="M719.918 233.182C720.402 239.842 718.769 249.511 714.112 254.317C708.594 260.01 701.401 265.498 693.186 265.898C686.825 266.207 684.84 265.163 679.159 264.18C679.315 262.724 679.07 262.951 679.902 262.014C680.991 261.61 682.115 262.077 683.314 262.381C698.203 264.196 712.373 256.968 717.392 242.58C718.271 240.06 718.353 235.214 719.918 233.182Z" fill="#DB3DE9"/>
<path d="M702.176 194.063L702.561 194.792C702.116 196.115 699.686 196.929 698.377 197.946C695.335 200.313 694.834 205.084 691.404 206.742C688.423 208.182 679.614 208.399 677.131 206.164C677.127 205.364 678.202 203.401 678.607 202.46C678.824 202.968 679.098 203.223 679.461 203.635C682.606 204.747 691.215 204.299 693.076 201.629C696.452 196.777 696.516 196.413 702.176 194.063Z" fill="#C11FEF"/>
<path d="M713.294 216.576C715.923 214.317 717.62 212.064 718.709 208.758L719.072 209.208C718.435 212.58 717.282 215.644 716.951 219.006L716.653 219.375C715.144 218.966 714.023 217.933 713.294 216.576Z" fill="#DB3DE9"/>
<path d="M717.695 222.56L717.122 223.248L716.258 223.289C714.66 222.434 711.348 218.187 713.294 216.576C714.023 217.933 715.144 218.966 716.652 219.375L716.951 219.007C717.19 220.098 717.528 221.486 717.695 222.56Z" fill="#C11FEF"/>
<path d="M560.562 82.5393C561.299 82.2472 562.039 81.7503 562.807 82.2568C564.116 83.1176 566.61 84.7464 565.874 86.596L564.796 86.3445C564.138 87.2455 564.23 86.8389 564.355 87.831C564.856 88.2553 565.397 88.6071 565.643 89.1933C563.01 96.3851 562.466 101.083 560.616 108.074C557.129 121.238 554.411 136.495 550.558 149.347L546.62 150.057C544.407 150.379 543.137 150.622 540.956 151.181C540.789 147.681 540.394 135.553 538.978 133.189L538.566 133.261C537.022 136.481 536.314 148.117 536.541 151.721C536.52 152.764 536.516 153.809 536.438 154.85L532.073 155.487L529.892 155.64C525.221 156.603 507.301 160.219 504.042 159.42C504.316 158.823 504.69 158.721 505.288 158.393L505.537 158.259L505.544 157.44C505.992 157.057 506.675 156.912 507.276 156.716C515.395 138.8 526.751 120.824 535.339 102.983C537.84 97.7837 553.312 91.9478 558.588 88.5559C560.491 87.3348 562.323 87.1992 562.718 84.4134C562.014 83.1233 562.003 83.4057 560.562 82.5393Z" fill="#F5C005"/>
<path d="M507.276 156.716C515.327 155.491 524.061 153.691 531.728 152.622C531.127 153.523 530.287 154.664 529.892 155.639C525.221 156.603 507.301 160.219 504.042 159.42C504.316 158.823 504.69 158.721 505.288 158.393L505.537 158.259L505.544 157.44C505.992 157.057 506.675 156.912 507.276 156.716Z" fill="#0A0D04"/>
<path d="M536.541 151.721C536.52 152.765 536.516 153.81 536.438 154.85L532.073 155.487L529.892 155.64C530.287 154.665 531.127 153.523 531.728 152.622C532.461 152.379 535.609 151.886 536.541 151.721Z" fill="#62615D"/>
<path d="M346.501 88.9449C353.198 81.3102 360.114 79.6281 367.409 87.4915C369.034 88.2687 371.801 88.1659 373.605 88.1015C386.954 87.6249 394.2 87.9497 402.845 99.2743C406.913 104.338 407.955 106.979 410.022 113.153C410.527 114.659 411.413 117.427 412.253 118.687C406.909 121.528 394.284 125.327 390.938 127.837C389.222 132.482 386.184 139.545 384.826 143.861L383.426 144.191C383.33 144.821 383.346 145.24 382.916 145.696C380.191 143.277 380.064 141.862 376.584 139.57L376.407 139.455C375.932 137.537 374.329 131.442 373.342 129.978C371.89 127.826 371.466 124.977 370.468 123.252C368.05 119.076 363.677 115.056 362.309 110.252C362.1 108.43 360.292 106.312 359.102 105.009L359.316 105.658C354.661 100.256 354.504 93.878 347.387 91.2327C346.665 90.9642 346.744 90.4032 346.602 89.6364L346.501 88.9449Z" fill="#9C03F2"/>
<path d="M346.501 88.9449C353.198 81.3102 360.114 79.6281 367.409 87.4915C369.034 88.2687 371.801 88.1659 373.605 88.1015C386.954 87.6249 394.2 87.9497 402.845 99.2743C401.736 99.222 400.915 98.7013 399.899 98.2055C396.745 97.6673 392.635 94.1224 387.524 93.0802C380.571 91.6624 373.908 93.7788 368.102 93.0162L367.919 92.9909C359.975 83.916 357.071 86.137 346.602 89.6364L346.501 88.9449Z" fill="#C11FEF"/>
<path d="M367.409 87.4915C369.034 88.2687 371.801 88.1659 373.605 88.1015C386.954 87.6248 394.2 87.9496 402.845 99.2743C401.736 99.222 400.915 98.7012 399.899 98.2054C396.988 95.3026 384.927 90.4316 380.478 90.0372C378.117 89.828 364.117 95.6063 367.409 87.4915Z" fill="#DB3DE9"/>
<path d="M362.309 110.252C364.544 111.246 370.909 121.313 372.324 123.869C373.658 126.277 374.854 130.263 376.526 133.068L377.001 133.87C377.144 134.112 377.093 134.021 377.205 134.326L377.14 140.352C379.327 138.257 381.07 135.534 382.692 132.998C384.028 130.919 388.358 128.108 390.938 127.837C389.222 132.482 386.184 139.545 384.826 143.861L383.426 144.191C383.33 144.821 383.346 145.24 382.916 145.696C380.191 143.277 380.064 141.862 376.584 139.57L376.406 139.455C375.932 137.537 374.329 131.442 373.342 129.978C371.89 127.827 371.466 124.977 370.467 123.252C368.05 119.076 363.677 115.056 362.309 110.252Z" fill="#870DC4"/>
<path d="M377.205 134.326C378.903 132.173 386.646 125.163 389.484 124.243L389.891 124.496C389.558 125.919 386.576 127.668 385.363 128.695C383.397 130.36 381.91 131.995 380.246 133.949L380.56 134.546L380.066 134.18L380.17 134.808C380.692 134.84 382.14 133.463 382.692 132.998C381.07 135.534 379.327 138.257 377.14 140.352L377.205 134.326Z" fill="#C11FEF"/>
<path d="M529.892 155.639L532.073 155.487C532.009 156.633 531.724 162.471 531.514 163.282L531.127 163.688C530.767 164.349 529.707 166.2 529.501 166.799C528.142 169.113 524.566 172.132 522.382 173.761L522.553 174.032L524.403 173.995C523.862 175.116 517.956 176.042 516.274 176.57C513.467 176.857 510.834 177.05 508.091 177.738C513.093 178.792 517.472 178.953 522.563 179.282C524.307 179.394 527.53 179.487 529.134 179.874L532.009 183.096C530.646 185.015 525.982 190.279 525.548 191.29L526.004 191.429L527.658 192.819C525.623 193.175 524.303 193.306 522.506 194.366L522.289 194.493C520.539 195.518 518.508 197.781 517.063 199.285C511.069 196.717 499.702 195.867 495.188 201.232L486.137 195.562C485.845 193.069 485.824 190.553 486.069 188.056C488.425 183.564 500.054 158.955 503.786 158.812L504.042 159.42C507.301 160.219 525.221 156.603 529.892 155.639Z" fill="#F5C005"/>
<path d="M529.892 155.639L532.073 155.487C532.009 156.633 531.724 162.471 531.514 163.282C531.283 162.27 531.298 162.167 530.7 161.349C528.683 160.434 522.606 161.751 519.888 162.087C514.118 161.039 510.429 161.855 504.911 163.274C504.807 169.103 504.946 169.497 499.315 171.939C496.579 175.782 489.862 190.368 487.952 191.909C486.219 191.231 486.329 189.77 486.07 188.056C488.425 183.564 500.055 158.955 503.786 158.812L504.043 159.42C507.301 160.219 525.221 156.603 529.892 155.639Z" fill="#FAEB06"/>
<path d="M519.888 162.087C522.606 161.751 528.683 160.434 530.7 161.349C531.298 162.167 531.283 162.27 531.515 163.282L531.127 163.688C528.295 163.838 520.902 164.283 517.739 165.035C517.498 165.092 517.711 165.615 516.594 166.074L515.925 165.497C515.477 164.401 515.32 164.246 515.537 163.145C516.583 162.37 518.511 162.275 519.888 162.087Z" fill="#222909"/>
<path d="M536.541 151.721C536.314 148.117 537.022 136.481 538.566 133.261L538.978 133.189C540.394 135.553 540.789 147.681 540.956 151.181L541.038 153.918L543.002 153.651C544.098 156.851 544.645 156.28 545.649 157.558C546.374 158.48 545.606 161.881 547.111 164.24C546.858 165.474 546.271 167.6 546.812 168.676C547.652 167.867 549.441 166.119 550.526 166.013L550.32 166.625C552.81 172.069 558.257 170.216 562.597 173.265C563.675 174.024 565.618 174.847 566.852 175.211C567.791 173.907 566.603 173.769 567.991 173.456C567.941 175.023 567.638 175.236 568.449 176.166C570.086 176.146 570.979 175.616 572.402 175.47C572.235 177.006 573.188 179.961 574.078 181.128C571.217 181.853 562.032 184.451 560.086 184.573C558.513 184.661 555.165 184.752 553.742 184.981C551.483 187.91 547.965 192.058 547.107 195.666C545.158 203.843 547.837 210.123 540.177 216.666L539.857 217.831L539.665 217.916L539.444 219.248L538.252 219.311L538.028 218.866C537.249 215.425 536.883 211.627 536.694 208.106C533.82 199.838 539.871 193.366 527.658 192.819L526.004 191.429L525.548 191.29C525.982 190.279 530.646 185.015 532.009 183.097L529.134 179.874C527.53 179.488 524.307 179.394 522.563 179.282C517.472 178.953 513.093 178.793 508.091 177.739C510.834 177.05 513.467 176.858 516.274 176.571C517.956 176.042 523.862 175.116 524.403 173.995L522.553 174.032L522.382 173.761C524.566 172.133 528.142 169.113 529.501 166.8C529.707 166.2 530.767 164.35 531.127 163.688L531.514 163.282C531.724 162.471 532.009 156.633 532.073 155.487L536.438 154.85C536.516 153.81 536.52 152.765 536.541 151.721Z" fill="#FEFEFD"/>
<path d="M546.812 168.676C547.652 167.866 549.441 166.119 550.526 166.013L550.32 166.625C552.81 172.068 558.257 170.215 562.597 173.265C563.675 174.024 565.618 174.847 566.852 175.211C567.791 173.907 566.603 173.769 567.99 173.456C567.941 175.023 567.638 175.236 568.449 176.166C570.086 176.146 570.979 175.616 572.402 175.47C572.235 177.005 573.188 179.961 574.078 181.128C571.217 181.853 562.031 184.451 560.085 184.572C558.513 184.661 555.165 184.751 553.742 184.98C552.369 183.479 548.424 180.909 546.67 179.723C549.711 179.287 566.254 179.411 567.129 178.169C563.817 176.577 550.917 176.753 547.801 175.422C546.599 173.732 546.638 173.876 544.805 174.116C544.734 173.299 545.695 172.154 546.236 171.287L546.09 169.588L546.812 168.676Z" fill="#2F3030"/>
<path d="M546.812 168.676C547.652 167.866 549.441 166.119 550.526 166.013L550.32 166.625L546.236 171.287L546.09 169.588L546.812 168.676Z" fill="#E2E2E4"/>
<path d="M548.05 186.87C546.801 184.23 544.35 182.49 544.037 180.445L544.475 179.906L546.67 179.723C548.424 180.909 552.369 183.479 553.742 184.98C551.483 187.91 547.965 192.058 547.107 195.666C545.158 203.843 547.837 210.123 540.177 216.666L539.857 217.831L539.665 217.916C539.626 216.708 540.287 211.952 540.465 210.486C541.821 210.943 540.366 212.507 541.177 213.74C541.227 212.695 541.376 210.816 541.856 209.897C545.972 202.029 539.387 192.951 548.05 186.87Z" fill="#FAD53A"/>
<path d="M532.073 155.487L536.438 154.85C536.253 160.686 535.986 166.519 535.638 172.347C534.161 171.255 531.141 168.729 529.415 168.723L529.501 166.799C529.707 166.2 530.767 164.349 531.127 163.688L531.514 163.282C531.724 162.471 532.009 156.633 532.073 155.487Z" fill="#FCDC63"/>
<path d="M541.867 182.878C543.557 184.225 546.026 186.228 548.05 186.87C539.387 192.951 545.973 202.029 541.856 209.897C541.376 210.816 541.227 212.695 541.177 213.74C540.366 212.507 541.821 210.943 540.465 210.487C541.223 201.555 541.284 191.964 541.867 182.878Z" fill="#FBD655"/>
<path d="M543.002 153.651C544.098 156.851 544.645 156.28 545.649 157.558C546.374 158.48 545.606 161.881 547.111 164.24C546.858 165.474 546.271 167.6 546.812 168.676L546.09 169.588L544.912 170.199L544.211 169.957C543.347 167.194 541.981 167.311 541.437 164.271C541.355 160.818 541.223 157.367 541.038 153.918L543.002 153.651Z" fill="#FBD655"/>
<path d="M529.501 166.8L529.415 168.724C531.027 171.361 532.411 173.057 534.357 175.479C529.067 175.773 521.365 176.509 516.274 176.571C517.956 176.042 523.862 175.116 524.403 173.995L522.553 174.032L522.382 173.761C524.566 172.133 528.142 169.113 529.501 166.8Z" fill="#FBD655"/>
<path d="M526.004 191.429C527.32 190.935 530.39 187.995 531.678 186.848C532.742 187.978 535.769 191.7 536.136 193.066C536.36 198.078 536.545 203.091 536.694 208.106C533.82 199.838 539.871 193.366 527.658 192.819L526.004 191.429Z" fill="#FAD53A"/>
<path d="M531.678 186.848C533.026 185.605 534.389 184.373 535.762 183.153C535.926 186.41 536.157 189.818 536.136 193.066C535.769 191.7 532.742 187.977 531.678 186.848Z" fill="#FCDC63"/>
<path d="M541.437 164.27C541.981 167.31 543.347 167.194 544.211 169.957L544.912 170.199C544.464 171.209 542.49 172.538 541.536 173.244C541.746 170.982 541.508 166.69 541.437 164.27Z" fill="#FCDC63"/>
<path d="M527.658 192.819C539.871 193.366 533.82 199.838 536.694 208.106C536.883 211.626 537.249 215.425 538.028 218.866C534.855 219.504 532.261 220.766 529.871 221.746C527.836 222.58 517.689 215.39 515.697 214.119C508.891 209.773 502.054 205.477 495.188 201.232C499.702 195.867 511.069 196.717 517.063 199.285C518.508 197.781 520.539 195.518 522.289 194.493L522.506 194.366C524.303 193.306 525.623 193.175 527.658 192.819Z" fill="#FCFB09"/>
<path d="M203.224 261.955C205.611 261.749 209.404 261.448 211.576 260.585C211.193 266.935 211.001 283.402 209.575 288.299C208.663 289.071 207.783 290.056 206.681 290.142L206.071 289.643C206.898 289.161 207.593 288.089 207.759 287.147C206.852 286.32 180.936 280.791 178.317 280.176C177.399 278.684 175.955 276.816 174.897 275.364C169.006 263.374 199.471 265.775 203.224 261.955Z" fill="#860FCC"/>
<path d="M500.947 91.1485C504.441 88.3631 507.732 82.731 510.923 82.6328C512.054 83.2428 511.816 82.8992 512.189 83.8888C511.645 87.7036 510.613 91.1052 509.688 94.8062C506.305 108.346 502.047 121.87 497.664 135.124C496.689 138.065 496.009 142.716 495.173 145.913C494.312 147.542 493.765 149.114 491.854 149.618C492.608 145.666 493.765 141.409 494.75 137.479C494.505 136.154 494.448 134.272 494.209 132.707L493.74 132.492C492.776 132.764 492.559 132.911 491.897 133.662C490.228 129.724 491.107 125.16 490.107 121.024C489.254 117.499 487.147 114.392 485.34 111.28C484.604 110.018 484.949 109.979 485.386 108.271C485.806 107.39 487.258 106.234 488.023 105.484C492.626 100.98 497.084 96.2969 500.947 91.1485Z" fill="#9C03F2"/>
<path d="M500.947 91.1485C504.441 88.3631 507.732 82.731 510.923 82.6328C512.054 83.2428 511.816 82.8992 512.189 83.8888C511.645 87.7036 510.613 91.1052 509.688 94.8062C506.305 108.346 502.047 121.87 497.664 135.124C496.689 138.065 496.009 142.716 495.173 145.913C494.312 147.542 493.764 149.114 491.854 149.618C492.608 145.666 493.764 141.409 494.75 137.479C496.66 131.328 498.354 124.691 500.261 118.419C503.117 109.026 507.632 96.8859 509.087 87.3472C509.848 87.1939 509.703 87.3312 510.61 87.9291C511.382 86.798 511.339 84.8797 511.054 83.5818L510.489 83.3492C507.671 83.776 504.967 90.2952 501.79 91.8133L500.947 91.1485Z" fill="#DB3DE9"/>
<path d="M667.18 174.519C667.571 175.386 667.568 175.472 667.735 176.371C668.208 178.93 670.439 181.794 671.474 184.019C673.285 186.114 678.579 199.694 678.607 202.46C678.202 203.401 677.127 205.364 677.131 206.165C676.96 206.646 676.686 207.571 676.764 208.059C679.294 223.706 681.93 239.239 683.695 255.009C683.961 257.402 682.748 259.837 683.293 262.283L683.314 262.381C682.115 262.078 680.991 261.61 679.902 262.014C679.07 262.951 679.315 262.725 679.159 264.18L676.768 264.069L676.309 261.715C676.085 257.47 674.957 251.576 674.495 247.209C673.118 234.214 670.183 219.803 669.094 206.98C667.653 201.193 666.07 183.253 665.035 176.722C664.967 176.296 666.696 174.922 667.18 174.519Z" fill="#670E97"/>
<path d="M672.346 205.115C671.983 201.286 671.343 197.111 670.727 193.306C670.147 189.728 668.984 185.604 668.998 181.979L669.279 182.066C670.026 182.959 670.407 183.46 671.474 184.019C673.285 186.114 678.579 199.694 678.607 202.46C678.202 203.401 677.127 205.364 677.131 206.164C676.96 206.646 676.686 207.57 676.764 208.058C679.294 223.706 681.93 239.239 683.695 255.009C683.961 257.402 682.748 259.836 683.293 262.283L683.314 262.381C682.115 262.077 680.991 261.61 679.902 262.014C679.07 262.951 679.315 262.724 679.159 264.18L676.768 264.069L676.309 261.715C676.508 261.248 676.711 260.948 676.967 260.516C678.059 260.288 678.806 260.226 679.422 259.219C681.204 256.299 675.868 221.458 674.993 216.577C674.303 212.721 673.203 208.938 672.346 205.115Z" fill="#7E13AE"/>
<path d="M595.669 136.954C596.306 141.417 596.441 145.919 596.907 150.401C597.54 156.479 598.49 162.619 598.362 168.749C596.505 169.224 584.373 172.486 583.15 172.599C581.371 172.54 578.823 172.987 576.867 173.132C574.298 170.6 577.585 167.844 578.005 164.665C578.955 164.672 579.072 164.719 579.909 164.328C581.549 160.819 582.509 145.059 583.388 144.318L583.146 143.585C583.868 142.598 584.501 140.105 584.939 138.793C589.518 137.521 590.955 137.398 595.669 136.954Z" fill="#9C03F2"/>
<path d="M483.12 111.758C483.96 110.103 484.184 109.659 485.386 108.271C484.949 109.979 484.604 110.017 485.34 111.28C487.147 114.392 489.253 117.499 490.107 121.024C491.107 125.16 490.228 129.724 491.897 133.662C492.558 132.911 492.775 132.764 493.74 132.492L494.209 132.707C494.447 134.272 494.504 136.154 494.75 137.479C493.764 141.409 492.608 145.665 491.854 149.617C493.764 149.114 494.312 147.542 495.173 145.912C494.825 150.15 494.682 151.043 495.358 155.272C495.102 156.666 493.722 159.121 493.032 160.482C488.809 168.27 484.657 176.096 480.576 183.96C479.153 180.188 478.139 175.148 476.827 171.059C480.203 169.657 484.194 168.113 487.354 166.386C487.45 163.864 486.56 158.541 486.194 155.805C485.778 152.707 485.415 149.602 485.109 146.491C483.768 136.458 482.522 126.412 481.373 116.355L481.096 113.914L483.12 111.758Z" fill="#7E13AE"/>
<path d="M483.12 111.758C483.96 110.103 484.184 109.659 485.387 108.271C484.949 109.979 484.604 110.017 485.34 111.28C487.148 114.392 489.254 117.499 490.108 121.024C491.107 125.16 490.228 129.724 491.897 133.662C492.559 132.911 492.776 132.764 493.74 132.492L494.209 132.707C494.448 134.272 494.505 136.154 494.75 137.479C493.765 141.409 492.609 145.665 491.854 149.617C493.765 149.114 494.313 147.542 495.174 145.912C494.825 150.15 494.683 151.043 495.359 155.272C495.102 156.666 493.722 159.121 493.032 160.482L492.313 160.833C487.553 159.739 489.489 156.364 489.858 152.234C490.883 140.826 489.485 128.009 486.785 116.901C486.308 114.941 484.003 113.719 483.12 111.758Z" fill="#870DC4"/>
<path d="M491.854 149.618C493.765 149.114 494.312 147.542 495.173 145.913C494.825 150.151 494.682 151.043 495.358 155.272C495.102 156.667 493.722 159.121 493.032 160.482L492.313 160.833C488.183 158.345 490.627 153.145 491.854 149.618Z" fill="#D269D5"/>
<path d="M481.373 116.355C482.163 115.955 481.85 116.257 482.209 115.304C485.07 117.888 486.425 136.029 486.674 140.139C487.197 143.848 488.129 152.645 486.194 155.805C485.778 152.708 485.415 149.602 485.109 146.491C483.768 136.458 482.522 126.412 481.373 116.355Z" fill="#670E97"/>
<path d="M342.912 92.5391C344 90.7005 344.777 90.1727 346.501 88.9448L346.602 89.6363C346.744 90.4032 346.665 90.9641 347.387 91.2327C354.504 93.878 354.661 100.256 359.316 105.658L359.101 105.009C360.292 106.312 362.099 108.43 362.309 110.252C363.677 115.055 368.05 119.076 370.467 123.252C371.466 124.977 371.89 127.826 373.342 129.978C374.329 131.442 375.932 137.537 376.406 139.454L376.584 139.57C380.064 141.862 380.191 143.277 382.916 145.696C383.346 145.24 383.33 144.82 383.426 144.191L384.826 143.861L383.29 147.977L380.75 154.331C370.624 136.634 359.403 119.345 348.745 101.952C346.893 98.9292 344.789 95.8788 343.151 92.7554L342.912 92.5391Z" fill="#7E13AE"/>
<path d="M120.923 241.602C121.922 242.547 123.374 243.829 124.149 244.904L125.2 247.513C124.64 248.039 124.419 248.257 123.944 248.859C124.743 250.17 125.759 251.709 127.472 251.59C132.74 257.861 138.724 259.505 145.854 262.611C146.495 262.89 146.916 263.558 147.144 264.206C146.986 265.795 147.102 265.641 145.674 266.971C142.366 268.104 130.61 271.942 128.128 273.212L125.32 273.97C118.164 266.851 117.236 253.651 120.208 244.449C120.285 243.736 120.716 242.353 120.923 241.602Z" fill="#950DE2"/>
<path d="M120.208 244.449C121.289 246.03 120.656 252.964 120.817 255.52C120.962 257.59 121.32 259.638 121.884 261.634C123.223 266.362 125.311 269.313 128.128 273.212L125.32 273.97C118.164 266.851 117.236 253.651 120.208 244.449Z" fill="#DB3DE9"/>
<path d="M317.652 271.233C321.544 265.658 329.597 254.648 333.953 250.069C335.205 250.83 335.466 250.919 336.826 251.345C337.635 253.062 339.482 254.234 341.021 255.486C342.655 263.675 341.17 275.626 333.272 280.185C328.132 277.275 322.587 274.409 317.652 271.233Z" fill="#FCFB09"/>
<path d="M505.544 157.44C504.167 157.358 503.797 157.56 502.769 156.886C502.701 154.005 531.162 102.906 533.866 97.6806C534.794 95.8865 556.425 84.6557 560.562 82.5393C562.003 83.4058 562.014 83.1234 562.718 84.4135C562.323 87.1993 560.491 87.3348 558.588 88.5559C553.312 91.9478 537.84 97.7838 535.339 102.983C526.751 120.824 515.395 138.8 507.276 156.716C506.675 156.912 505.992 157.057 505.544 157.44Z" fill="#FCFB09"/>
<path d="M418.247 274.123C420.51 272.909 422.591 271.925 424.918 270.842C426.512 285.947 426.416 301.801 427.75 316.995C428.027 320.147 427.853 322.622 428.707 325.783C431.425 328.824 436.231 333.257 439.308 336.413C439.838 337 440.877 337.991 441.059 338.685C434.032 344.535 428.362 343.629 419.535 343.766L423.107 341.318C424.398 340.401 426.248 339.306 427.625 338.435C427.433 323.139 425.597 306.993 425.032 291.385C422.933 288.555 418.489 284.349 415.86 281.734C416.579 279.173 417.372 276.635 418.247 274.123Z" fill="#681592"/>
<path d="M439.308 336.413C439.838 337 440.877 337.99 441.059 338.684C434.032 344.535 428.362 343.629 419.535 343.766L423.107 341.318C426.818 341.412 435.904 338.52 439.308 336.413Z" fill="#DB3DE9"/>
<path d="M579.471 139.932C580.969 139.531 583.356 139.12 584.939 138.792C584.501 140.105 583.868 142.598 583.146 143.585L583.388 144.318C582.509 145.059 581.549 160.819 579.908 164.328C579.072 164.719 578.955 164.672 578.005 164.664C577.585 167.844 574.298 170.6 576.867 173.132C578.823 172.987 581.371 172.54 583.149 172.599C580.794 173.379 576.28 174.576 573.832 174.937L572.402 175.47C570.979 175.616 570.086 176.146 568.449 176.166C567.638 175.236 567.941 175.023 567.99 173.455C570.282 165.141 572.05 156.571 573.992 148.164C574.469 146.108 574.778 144.086 575.401 142.061L575.611 140.878C576.764 140.676 578.308 140.232 579.471 139.932Z" fill="#7E13AE"/>
<path d="M567.99 173.456C570.282 165.141 572.05 156.571 573.992 148.164C574.469 146.108 574.778 144.086 575.401 142.062C576.991 144.27 578.884 142.853 578.279 147.964C577.614 153.578 575.949 158.943 574.515 164.393C573.814 167.053 572.484 169.86 572.292 172.634C572.487 171.997 572.694 171.361 572.904 170.727C573.323 171.648 573.804 172.017 574.554 172.66L574.85 173.711L573.683 174.305L573.832 174.937L572.402 175.47C570.979 175.616 570.086 176.146 568.449 176.166C567.638 175.236 567.941 175.023 567.99 173.456Z" fill="#670E97"/>
<path d="M579.471 139.932C580.968 139.531 583.356 139.12 584.939 138.792C584.501 140.105 583.868 142.598 583.146 143.585L582.491 143.151L579.926 142.837C579.748 142.027 579.599 140.788 579.471 139.932Z" fill="#870DC4"/>
<path d="M643.682 127.043C646.532 126.499 656.055 132.527 656.909 135.372C656.315 139.11 655.461 142.842 654.704 146.524C653.455 152.607 652 154.374 647.492 158.165C646.61 147.856 644.454 137.549 643.682 127.043Z" fill="#FCFB09"/>
<path d="M221.23 260.468C230.311 256.563 239.645 251.998 248.796 248.115C252.409 246.582 260.373 242.296 263.617 241.73C264.595 242.451 264.324 242.043 264.597 243.288C262.934 246.663 250.592 250.335 247.06 252.161C241.227 255.176 235.433 258.071 229.402 260.674C226.871 261.767 225.312 263.329 223.124 264.8L221.23 260.468Z" fill="#FAD53A"/>
<path d="M124.149 244.905C125.08 245.826 126.041 246.718 126.97 247.64C129.675 250.324 133.114 252.07 136.564 253.594C143.267 256.554 149.854 259.779 156.619 262.6C153.986 264.125 148.713 265.922 145.674 266.972C147.102 265.641 146.986 265.795 147.144 264.206C146.916 263.559 146.495 262.891 145.854 262.611C138.724 259.505 132.74 257.861 127.472 251.59C125.759 251.709 124.743 250.17 123.944 248.859C124.419 248.258 124.64 248.04 125.2 247.513L124.149 244.905Z" fill="#7E13AE"/>
<path d="M81.7707 149.244C80.8795 148.405 80.5172 148.143 80 146.991C81.1082 143.867 95.3022 148.505 98.1323 149.215L97.3169 150.803L94.0464 158.381L92.7472 161.425C89.4023 156.934 84.2541 152.832 81.7707 149.244Z" fill="#C11FEF"/>
<path d="M81.7707 149.244C80.8795 148.405 80.5172 148.143 80 146.991C81.1082 143.867 95.3022 148.505 98.1323 149.215L97.3169 150.803C95.3873 150.769 88.8398 150.318 87.5943 150.659L87.1286 151.433C85.4509 150.915 84.1011 148.881 81.7707 149.244Z" fill="#DB3DE9"/>
<path d="M81.7708 149.244C84.1012 148.881 85.451 150.915 87.1287 151.433C89.698 153.61 92.1172 155.575 94.0465 158.381L92.7473 161.425C89.4024 156.934 84.2542 152.832 81.7708 149.244Z" fill="#D269D5"/>
<path d="M166.966 267.699C177.744 265.484 192.107 263.672 203.224 261.956C199.471 265.775 169.006 263.374 174.897 275.364C172.35 272.712 169.704 270.155 166.966 267.699Z" fill="#670E97"/>
<path d="M540.956 151.181C543.137 150.623 544.407 150.379 546.62 150.057L546.414 150.42L546.712 150.535C549.242 151.532 548.669 152.435 551.06 152.587C549.598 157.082 548.47 159.206 547.111 164.24C545.606 161.881 546.375 158.48 545.649 157.558C544.646 156.28 544.098 156.852 543.002 153.651L541.038 153.918L540.956 151.181Z" fill="#FAD53A"/>
<path d="M540.956 151.181C543.137 150.623 544.407 150.379 546.62 150.057L546.414 150.42L546.712 150.535C549.242 151.532 548.669 152.435 551.06 152.587C548.321 152.9 545.723 153.191 543.002 153.651L541.038 153.918L540.956 151.181Z" fill="#62615D"/>
<path d="M608.099 69.0989C614.275 70.2158 627.242 78.2428 633.813 80.6569C632.746 81.099 632.458 81.1901 631.568 81.9161C627.957 79.7029 622.03 77.7057 618.149 75.6042C617.598 75.4338 615.47 72.955 615.129 72.9482C611.582 72.8757 611.834 72.6341 608.96 70.6209C606.918 72.1088 605.352 72.7085 603.029 73.724C604.755 71.9441 606.22 70.6992 608.099 69.0989Z" fill="#8C8B07"/>
<path d="M527.06 94.3874C526.502 92.2521 526.349 83.8972 528.433 82.489C529.832 82.4096 529.412 82.4221 530.771 83.1481C532.144 84.6068 534.065 87.3531 535.061 89.1312C532.379 90.453 531.045 91.1644 528.583 92.8397L527.06 94.3874Z" fill="#C11FEF"/>
<path d="M527.06 94.3874C526.502 92.2521 526.349 83.8972 528.433 82.489C529.832 82.4096 529.412 82.4221 530.771 83.1481C529.977 85.5561 528.917 90.2823 528.583 92.8397L527.06 94.3874Z" fill="#DB3DE9"/>
<path d="M394.07 287.218C393.577 284.811 395.266 275.188 397.281 274.122C398.793 274.234 399.049 274.394 400.395 275.033L400.24 275.413C398.838 278.919 398.249 287.292 394.07 287.218Z" fill="#FAD53A"/>
<path d="M635.059 81.2339L657.788 92.2978C656.575 92.5635 656.319 92.5891 655.291 93.2682C648.656 89.8969 641.95 86.6636 635.18 83.5708L635.059 81.2339Z" fill="#8C8B07"/>
<path d="M615.282 347.487C616.122 346.989 616.445 346.583 617.484 347.013C621.618 348.72 625.916 350.534 630.028 352.243C631.882 351.472 633.874 350.581 635.784 350.017C635.052 350.869 633.134 352.054 632.359 352.792C631.971 353.165 632.593 353.616 631.142 354.711C628.139 354.177 618.306 349.011 615.282 347.487Z" fill="#444406"/>
<path d="M655.291 93.2684C656.319 92.5894 656.575 92.5638 657.788 92.2981C659.211 92.9223 660.712 93.5537 662.1 94.2349C668.304 97.2807 664.971 97.5645 664.081 101.22C664.202 100.257 664.266 99.6073 664.284 98.6384C663.103 96.3456 657.813 94.4533 655.291 93.2684Z" fill="#928E06"/>
<path d="M538.252 219.311L539.444 219.248C539.352 220.215 539.487 220.535 538.946 221.194C538.377 220.499 538.413 220.234 538.252 219.311Z" fill="#E2E2E4"/>
<path d="M428.867 83.7554C433.26 85.1003 460.615 93.9087 462.287 96.9154C462.675 97.6169 462.678 97.878 462.621 98.6374C462.059 99.2086 461.906 99.1759 461.127 99.2947C460.864 101.73 466.407 143.259 467.46 147.987C463.82 149.697 462.251 150.607 458.865 152.719L456.993 147.391C456.79 149.368 456.097 153.69 456.082 155.269C456.862 158.085 458.1 163.46 459.765 165.56C461.077 169.198 465.147 183.938 465.766 187.595C466.104 188.771 466.634 190.354 466.577 191.519C466.464 193.754 467.52 195.235 468.068 197.134C468.584 197.621 469.363 198.31 469.825 198.808C472.479 197.907 479.15 194.856 481.167 195.165C482.199 195.782 481.9 195.411 482.281 196.56C481.957 197.618 482.224 197.26 481.245 197.881C479.915 203.965 483.302 214.908 481.647 221.221C481.598 221.412 476.628 224.994 475.841 225.824C480.253 229.527 489.528 236.178 492.662 242.081C492.687 242.126 497.767 244.028 498.336 245.777C503.253 250.187 507.629 255.608 511.901 260.394C514.594 263.411 524.783 268.38 526.221 273.043C525.847 271.837 524.534 290.798 524.513 291.32C521.948 294.321 518.419 297.303 515.37 299.86C501.89 311.169 488.745 322.903 475.073 333.976C473.796 335.011 472.711 335.843 471.59 337.051L471.654 337.519L472.906 338.062L472.764 338.376C471.789 338.52 471.131 338.605 470.149 338.646C467.73 337.387 463.415 335.77 460.768 334.691C457.854 333.204 452.575 330.312 449.455 329.869C447.003 328.413 443.823 326.911 441.24 325.569C438.561 324.177 435.79 325.07 434.221 321.117C434.498 314.713 433.566 302.726 433.054 296.217C432.378 287.449 431.788 278.674 431.286 269.895C431.016 264.909 431.702 264.329 436.576 262.902C439.625 262.01 443.62 259.984 446.826 259.952C448.889 261.262 446.484 265.038 448.209 268.34C449.366 269.242 448.821 269.016 450.276 269.196C450.984 266.407 446.253 243.135 445.566 238.421C446.915 237.82 448.256 237.202 449.59 236.567C450.693 236.031 452.176 235.337 452.557 234.234L452.237 233.791C448 232.411 398.18 255.79 390.18 258.317C389.17 258.636 387.801 259.055 387.009 259.786C387.061 261.141 387.086 261.317 387.578 262.61C389.242 262.859 394.583 258.136 397.713 258.902C398.568 260.825 396.575 264.877 395.879 266.965C394.496 270.991 393.258 275.066 392.166 279.181C392.077 277.365 391.915 272.606 391.152 271.409C389.434 268.715 376.722 263.882 373.56 262.509C368.21 259.943 362.707 257.769 357.217 255.101L349.061 251.526C349.588 250.399 350.226 249.505 350.91 248.471C350.9 246.022 366.458 208.076 368.771 202.254C368.972 201.748 369.679 201.774 370.209 201.71C373.684 201.435 380.409 199.727 382.44 199.554C387.453 199.127 413.452 195.05 416.294 195.834C416.479 196.645 414.907 199.806 414.498 200.866C412.655 205.642 411.836 211.158 409.794 215.782C406.785 217.516 403.454 217.664 400.649 220.379L400.721 220.83C404.419 221.295 444.307 208.085 446.719 204.961L446.132 204.441C442.77 204.992 442.29 205.141 439.757 207.387C435.381 192.194 433.278 174.223 428.454 159.063C425.387 163.695 418.742 186.69 417.319 193.046C413.231 193.814 408.403 194.829 404.394 195.314C399.997 195.846 376.879 197.502 374.85 198.346C374.74 199.194 374.755 199.193 374.411 199.967L373.278 200.346L373.067 200.107L373.899 198.802C371.686 198.311 372.167 199.56 370.735 200.088L370.471 199.497C371.38 194.375 378.526 177.28 380.858 171.301L390.138 147.816C392.139 142.752 394.598 135.992 397.132 131.375C404.127 128.956 411.125 126.058 418.016 123.315C419.485 123.029 420.425 123.124 421.353 122.234C420.439 115.051 419.286 107.901 417.892 100.796C419.421 97.2701 426.44 87.0847 428.867 83.7554Z" fill="#F5C005"/>
<path d="M469.826 198.808C472.48 197.907 479.15 194.856 481.167 195.165C482.199 195.782 481.9 195.411 482.281 196.56C481.957 197.618 482.224 197.26 481.246 197.881C480.2 198.062 473.579 200.54 472.149 201.061C472.259 201.259 472.366 201.458 472.472 201.658C474.024 204.562 474.87 207.967 473.792 211.089C471.394 217.491 464.802 220.486 458.398 218.422C445.694 214.327 449.597 194.837 462.668 195.607C464.695 195.726 466.197 196.415 468.068 197.134C468.584 197.621 469.363 198.31 469.826 198.808Z" fill="#FCFB09"/>
<path d="M358.439 241.85C360.818 239.302 364.126 237.823 367.611 237.751C371.133 237.736 374.517 239.117 377.022 241.592C379.602 244.103 381.233 247.616 381.223 251.24C381.245 254.588 379.872 257.794 377.435 260.09C376.119 261.351 375.177 261.752 373.56 262.509C368.21 259.943 362.706 257.768 357.217 255.101C353.626 250.253 355.858 246.687 358.439 241.85Z" fill="#FCFB09"/>
<path d="M350.91 248.471C350.9 246.022 366.458 208.075 368.771 202.254C368.972 201.748 369.679 201.774 370.209 201.709C371.45 201.892 371.977 201.729 372.698 202.472C371.37 206.306 369.007 211.567 367.449 215.508C364.137 224.023 360.758 232.511 357.31 240.972L358.439 241.85C355.859 246.687 353.627 250.253 357.217 255.101L349.061 251.525C349.588 250.399 350.226 249.504 350.91 248.471Z" fill="#FCFB09"/>
<path d="M357.31 240.972L358.439 241.85C355.859 246.687 353.627 250.253 357.217 255.101L349.061 251.526C349.588 250.399 350.226 249.505 350.91 248.471C350.961 249.021 350.775 249.84 350.676 250.404C351.155 251.604 350.848 251.32 351.787 251.955C353.36 251.256 355.764 243.682 357.149 241.252L357.31 240.972Z" fill="#FAD53A"/>
<path d="M465.766 187.595L465.574 189.109L465.012 189.423C459.743 188.435 456.018 178.153 456.278 173.389C456.474 169.765 457.274 168.017 459.765 165.56C461.077 169.198 465.147 183.938 465.766 187.595Z" fill="#FCFB09"/>
<path d="M428.867 83.7554C433.26 85.1003 460.615 93.9087 462.287 96.9154C462.675 97.6169 462.678 97.878 462.621 98.6374C462.059 99.2086 461.906 99.1759 461.127 99.2947C461.063 93.9155 432.328 89.7674 428.867 83.7554Z" fill="#8C8B07"/>
<path d="M434.221 321.117C438.412 322.832 445.498 326.079 449.483 327.423C449.326 328.317 449.095 329.034 449.454 329.869C447.003 328.413 443.823 326.911 441.24 325.569C438.561 324.177 435.79 325.07 434.221 321.117Z" fill="#444406"/>
<path d="M449.483 327.424C454.222 329.292 458.758 331.631 463.418 333.564C462.543 333.904 461.579 334.242 460.768 334.691C457.854 333.204 452.575 330.312 449.455 329.869C449.095 329.034 449.326 328.317 449.483 327.424Z" fill="#544D05"/>
<path d="M454.802 150.241C454.414 147.498 453.393 145.548 453.037 142.801C453.45 141.785 454.503 141.208 455.549 141.476C456.449 142.694 456.609 144.935 456.837 146.482C456.531 148.004 455.759 149.015 454.802 150.241Z" fill="black"/>
<path d="M463.418 333.564C466.157 334.697 470.138 335.398 470.149 338.646C467.73 337.387 463.414 335.77 460.768 334.691C461.579 334.242 462.543 333.904 463.418 333.564Z" fill="#444406"/>
<path d="M419.521 129.251C420.207 127.435 420.396 127.166 421.851 125.965C422.637 129.105 423.16 130.007 422.015 133.07L421.424 133.415C420.279 132.684 419.997 131.439 419.709 130.151C419.642 129.851 419.578 129.552 419.521 129.251Z" fill="#222909"/>
<path d="M421.353 122.234C421.869 123.789 421.83 124.315 421.851 125.965C420.396 127.166 420.208 127.435 419.521 129.251C419.315 126.678 420.385 124.914 418.016 123.315C419.485 123.029 420.425 123.124 421.353 122.234Z" fill="#767409"/>
<path d="M456.836 146.482L456.993 147.391C456.79 149.368 456.096 153.69 456.082 155.269C455.527 153.627 455.182 151.933 454.802 150.242C455.759 149.015 456.531 148.004 456.836 146.482Z" fill="#222909"/>
<path d="M398.465 189.134C394.657 188.669 389.861 191.067 387.642 191.256C386.812 190.71 386.768 190.589 386.455 189.639C387.868 186.285 396.061 187.007 399.255 187.066C400.181 187.083 400.587 188.035 401.01 188.711L398.465 189.134Z" fill="black"/>
<path d="M401.011 188.711L401.581 188.366C402.948 188.846 403.146 189.161 403.281 190.704C401.892 192.949 398.761 190.451 398.465 189.134L401.011 188.711Z" fill="#FAD53A"/>
<path d="M203.547 77.6471C205.457 77.1253 207.04 76.7024 209 76.3257C213.682 81.6035 227.053 95.5287 230.106 100.642L227.714 102.779C226.991 107.729 225.376 112.801 224.205 117.674C219.076 139.003 212.562 160.398 207.753 181.756C204.272 183.844 200.859 185.145 197.459 187.467C194.697 182.455 187.966 169.413 186.076 164.117C172.159 161.498 157.118 159.95 143.33 157.048C141.968 158.001 141.467 157.989 141.007 159.268L141.637 160.596C142.719 160.826 143.261 160.726 143.834 161.724C145.335 164.342 146.928 167.258 148.189 169.983L149.284 172.201C151.257 176.823 167.741 210.035 169.289 210.741C170.1 211.112 171.443 211.034 172.337 211.076C175.211 209.44 181.295 208.673 185.057 207.583C195.263 204.623 205.359 201.831 215.663 199.236C216.47 199.689 217.409 200.009 218.28 200.343C227.993 201.981 238.103 207.374 247.468 209.66L250.189 211.157C251.047 212.087 251.83 212.862 252.51 213.934C252.802 215.877 262.299 235.039 263.796 237.207C263.077 237.86 262.194 238.706 261.466 239.315C256.299 241.942 224.165 256.708 220.377 257.303C218.478 256.342 217.034 250.447 215.735 248.47C213.454 245.001 208.751 243.523 206.613 239.912C194.502 241.023 182.341 243.575 170.355 245.612C165.75 246.395 158.594 248.378 154.111 247.817C151.283 247.464 123.822 234.512 120.481 232.482C118.71 229.462 116.884 223.618 115.618 220.058L107.953 198.325L101.503 180.049C100.15 176.282 98.3391 171.844 97.3999 168.026C98.3903 164.262 100.977 158.849 102.62 155.177C105.456 148.842 108.253 142.49 111.011 136.12C112.112 133.615 113.484 131.102 114.449 128.635C117.442 126.561 154.882 106.715 157.824 105.972C161.328 103.386 165.434 101.642 169.406 99.7408C169.604 99.3542 169.773 99.0227 169.914 98.7474C168.676 94.0966 167.301 90.0339 167.337 85.2078L168.011 84.3022C169.677 83.4823 186.696 80.8078 189.581 80.4016C195.221 78.5989 197.721 78.33 203.547 77.6471Z" fill="#F5C005"/>
<path d="M140.487 239.997C136.582 236.591 134.081 233.6 133.376 228.001C132.528 221.27 135.966 214.394 141.992 211.112C142.631 210.73 148.803 208.798 148.868 208.497C150.612 200.412 154.251 196.184 162.684 203.432C162.638 207.264 162.644 208.156 160.982 211.733C164.826 214.869 167.109 217.64 168.364 222.606C171.173 233.722 160.897 245.01 149.626 243.649C146.001 243.212 143.516 241.898 140.487 239.997Z" fill="#FCFB09"/>
<path d="M203.547 77.6471C205.457 77.1253 207.04 76.7024 209 76.3257C213.682 81.6035 227.053 95.5287 230.106 100.642L227.714 102.779C227.594 101.215 227.336 100.651 226.336 99.446C220.489 92.4089 214.361 85.7805 208.54 78.7177L199.938 79.9371C197.674 80.3305 195.365 80.684 193.147 81.2702C191.23 81.3969 191.149 81.4466 189.581 80.4016C195.221 78.5989 197.721 78.33 203.547 77.6471Z" fill="#767409"/>
<path d="M149.284 172.201C151.257 176.823 167.741 210.035 169.289 210.742C170.1 211.112 171.443 211.034 172.337 211.076C170.076 211.792 170.04 213.356 168.315 213.181C166.047 211.467 164.525 206.355 162.832 203.665L162.683 203.432C162.608 202.416 150.032 177.945 148.363 174.606C148.449 174.007 149.021 172.811 149.284 172.201Z" fill="#444406"/>
<path d="M169.914 98.7473C171.765 105.291 173.562 111.85 175.305 118.423C175.639 119.675 177.275 125.49 177.374 126.509L177.03 126.594C176.891 127.102 176.865 127.474 176.461 127.785C174.84 125.986 176.13 120.822 173.409 120.22L172.978 120.99C170.604 113.372 168.635 109.14 169.487 101.234C164.648 103.247 163.457 104.933 157.824 105.972C161.328 103.386 165.434 101.642 169.406 99.7408C169.604 99.3541 169.773 99.0226 169.914 98.7473Z" fill="#444406"/>
<path d="M252.51 213.934C252.802 215.877 262.299 235.039 263.796 237.207C263.077 237.86 262.194 238.706 261.466 239.316C260.866 233.606 253.346 221.703 251.041 215.119C251.57 214.834 252.055 214.343 252.51 213.934Z" fill="#444406"/>
<path d="M172.978 120.99L173.409 120.22C176.129 120.822 174.84 125.986 176.461 127.785C176.865 127.474 176.891 127.102 177.03 126.594L177.374 126.509C177.933 128.794 178.534 131.326 179.248 133.552C179.981 135.838 181.705 138.623 178.813 140.45C177.141 138.338 173.92 124.491 172.978 120.99Z" fill="black"/>
<path d="M218.28 200.344C227.993 201.981 238.103 207.374 247.468 209.66L246.025 211.338C236.442 207.02 228.088 205.617 218.28 200.344Z" fill="#928E06"/>
<path d="M167.337 85.208L168.011 84.3024C169.677 83.4825 186.696 80.8081 189.581 80.4019C191.149 81.4469 191.23 81.3971 193.146 81.2705C189.111 82.2437 170.7 85.833 167.337 85.208Z" fill="#8C8B07"/>
<path d="M141.636 160.596C142.718 160.826 143.261 160.726 143.834 161.724C145.335 164.342 146.927 167.258 148.189 169.984C147.621 169.893 146.836 170.207 146.249 170.387C144.97 167.387 143.057 163.743 141.636 160.596Z" fill="#444406"/>
<path d="M146.249 170.387C146.836 170.207 147.621 169.892 148.189 169.983L149.284 172.201C149.021 172.811 148.45 174.007 148.363 174.606L146.249 170.387Z" fill="#544D05"/>
<path d="M247.468 209.66L250.189 211.157L249.322 212.664L246.025 211.338L247.468 209.66Z" fill="#8C8B07"/>
<path d="M250.189 211.157C251.047 212.087 251.83 212.862 252.51 213.934C252.055 214.343 251.57 214.834 251.041 215.119L249.322 212.664L250.189 211.157Z" fill="#928E06"/>
<path d="M136.517 182.428C142.213 181.635 147.483 185.583 148.321 191.271C149.158 196.96 145.25 202.26 139.566 203.14C133.822 204.031 128.451 200.071 127.604 194.321C126.758 188.57 130.759 183.231 136.517 182.428Z" fill="#FCFB09"/>
<path d="M323.048 80.3135C323.359 80.2267 323.676 80.0382 323.871 80.2364C327.432 83.8513 331.847 92.1774 334.429 96.3387L356.791 132.57C359.852 137.523 363.168 143.384 366.345 148.149C366.341 149.265 366.211 149.38 365.683 150.41C364.672 152.991 362.369 164.27 361.672 167.423C359.202 178.43 356.79 189.45 354.433 200.482C352.131 200.839 349.799 201.229 347.498 201.583C343.48 202.202 340.521 202.663 338.737 198.378L336.695 195.544C338.19 191.277 340.953 186.163 342.938 181.933C341.752 181.412 341.092 180.85 340.04 181.081C337.258 184.759 333.084 195.18 330.529 199.705C330.059 200.538 328.864 203.393 328.355 203.922C327.667 203.038 324.144 199.881 323.115 198.92C318.868 194.889 314.56 190.925 310.193 187.026C309.889 186.59 308.53 185.455 308.054 185.034C303.761 180.882 299.446 176.752 295.11 172.645L294.08 171.823C293.629 171.437 292.042 170.08 292.095 169.777C292.981 164.709 302.416 141.945 304.593 138.506L302.341 136.266C300.147 139.531 297.324 147.389 295.634 151.419C293.751 147.214 290.54 140.122 289.32 135.898C291.118 130.238 305.97 91.8886 308.135 89.419C310.862 86.3084 319.164 82.431 323.048 80.3135Z" fill="#F5C005"/>
<path d="M323.048 80.3135C323.359 80.2267 323.676 80.0382 323.871 80.2364C327.432 83.8513 331.847 92.1774 334.429 96.3387L356.79 132.57C359.851 137.523 363.168 143.384 366.345 148.149C366.341 149.265 366.211 149.38 365.683 150.41C362.454 145.468 358.303 139.03 355.634 133.859C353.569 129.291 351.634 125.915 348.429 122.097C345.055 118.699 325.597 85.7009 323.048 80.3135Z" fill="#544D05"/>
<path d="M304.593 138.506C305.663 139.036 306.188 139.194 306.83 140.232C306.986 141.574 304.827 146.748 304.189 148.229C300.724 156.257 298.071 164.467 295.11 172.645L294.08 171.823C293.629 171.437 292.042 170.08 292.095 169.777C292.981 164.709 302.416 141.945 304.593 138.506Z" fill="#FCFB09"/>
<path d="M348.429 122.097C351.634 125.915 353.569 129.291 355.634 133.859C353.61 134.939 351.627 134.446 349.402 134.145C349.032 133.822 348.669 133.492 348.312 133.155C344.37 129.417 344.732 125.724 348.429 122.097Z" fill="#FCFB09"/>
<path d="M342.938 181.933C344.17 182.434 344.689 182.619 345.809 183.361C346.051 184.82 340.331 197.508 338.737 198.378L336.695 195.544C338.19 191.277 340.953 186.163 342.938 181.933Z" fill="#FCFB09"/>
<path d="M290.335 172.771C291.456 171.277 291.731 171.646 293.251 172.165L294.08 171.823L295.11 172.645C299.446 176.752 303.761 180.882 308.054 185.034C308.53 185.455 309.888 186.59 310.193 187.026C314.56 190.925 318.868 194.889 323.115 198.92C324.143 199.881 327.667 203.038 328.355 203.922C327.424 204.201 327.483 204.033 326.91 204.642L327.391 205.323C328.023 207.365 327.88 207.453 326.39 208.983C324.626 212.004 314.594 231.37 314.284 233.743C313.8 236.294 303.16 256.62 301.176 260.807C299.716 263.889 294.807 274.055 293.084 277.32C291.829 279.327 291.439 279.951 290.678 282.199C286.762 276.473 279.048 259.517 275.465 252.406C273.977 249.522 272.523 246.372 271.104 243.434C270.373 242.471 268.092 237.323 267.546 236.071L265.916 232.725C273.675 213.445 282.096 191.558 290.335 172.771Z" fill="#F5C005"/>
<path d="M293.084 277.32C291.597 276.634 290.626 275.788 289.946 274.276C286.751 267.249 284.739 260.516 287.289 252.817C290.157 244.157 297.072 237.565 305.694 234.677C307.97 233.915 311.932 232.992 314.284 233.743C313.8 236.294 303.16 256.62 301.176 260.807C299.716 263.889 294.807 274.055 293.084 277.32Z" fill="#FCFB09"/>
<path d="M290.335 172.771C291.336 173.173 292.37 174.41 293.182 175.238C292.296 178.186 291.109 181.03 289.948 183.878C286.739 191.75 283.713 199.695 280.37 207.512C279.515 208.872 278.108 212.012 277.713 213.563C275.077 220.273 272.345 228.139 269.271 234.647C268.95 235.325 268.226 235.762 267.546 236.071L265.916 232.725C273.675 213.445 282.096 191.558 290.335 172.771Z" fill="#FCFB09"/>
<path d="M277.713 213.563C278.108 212.012 279.515 208.872 280.37 207.511L281.508 208.292C284.5 206.918 289.255 206.325 290.41 210.255C292.698 218.041 282.76 224.338 279.113 214.981C278.79 214.334 278.284 214.023 277.713 213.563Z" fill="#FCFB09"/>
<path d="M277.713 213.563C278.108 212.012 279.515 208.872 280.37 207.511L281.508 208.293C279.404 211.235 279.338 211.461 279.113 214.981C278.79 214.334 278.284 214.023 277.713 213.563Z" fill="#FAD53A"/>
<path d="M290.335 172.771C291.456 171.277 291.731 171.646 293.251 172.165L294.08 171.823L295.11 172.645C299.446 176.752 303.761 180.882 308.054 185.034L307.436 185.761C307.271 185.757 306.688 185.758 306.515 185.713C306.249 186.261 305.889 186.907 305.757 187.487C305.101 186.761 304.349 186.091 303.6 185.461C299.795 182.265 296.483 178.951 293.182 175.238C292.37 174.41 291.336 173.173 290.335 172.771Z" fill="#767409"/>
<path d="M294.08 171.823L295.11 172.645C299.446 176.752 303.761 180.882 308.054 185.034L307.436 185.761C307.271 185.757 306.688 185.758 306.515 185.713C306.126 184.837 294.829 173.765 293.251 172.165L294.08 171.823Z" fill="#444406"/>
<path d="M271.104 243.434C275.82 237.753 285.167 251.505 275.465 252.406C273.977 249.522 272.523 246.372 271.104 243.434Z" fill="#FCFB09"/>
<path d="M310.193 187.026C314.56 190.924 318.868 194.889 323.115 198.92C324.143 199.881 327.667 203.038 328.355 203.922C327.424 204.201 327.483 204.033 326.91 204.642L326.734 204.444C325.182 202.714 319.177 196.723 316.947 196.595L316.201 197.376L313.717 195.002C314.024 194.523 314.285 194.21 314.639 193.775C314.134 190.63 310.045 189.727 309.38 187.533L310.193 187.026Z" fill="#444406"/>
<path d="M308.054 185.034C308.53 185.455 309.888 186.59 310.192 187.026L309.38 187.533C310.045 189.727 314.134 190.63 314.639 193.775C314.285 194.21 314.024 194.523 313.717 195.002C310.889 192.512 308.434 190.121 305.757 187.487C305.888 186.907 306.249 186.261 306.515 185.713C306.688 185.758 307.271 185.757 307.436 185.761L308.054 185.034Z" fill="#767409"/>
<path d="M316.201 197.376L316.947 196.595C319.177 196.723 325.182 202.714 326.734 204.444L326.91 204.642L327.391 205.323C326.326 205.039 325.353 205.135 324.245 205.159C321.846 202.679 318.735 199.899 316.201 197.376Z" fill="#767409"/>
<path d="M324.245 205.159C325.353 205.135 326.326 205.039 327.391 205.323C328.023 207.365 327.88 207.454 326.39 208.983C325.925 207.24 325.374 206.5 324.245 205.159Z" fill="#928E06"/>
<path d="M297.21 192.631L299.661 190.684C300.791 191.715 302.151 192.788 303.344 193.772C306.063 195.388 309.916 197.733 311.348 200.63C311.475 200.886 311.442 202.225 311.455 202.625L311.463 203.03C308.47 202.371 302.823 197.889 300.405 195.783C299.372 194.85 298.213 193.63 297.21 192.631Z" fill="#77760D"/>
<path d="M297.21 192.631L299.661 190.684C300.791 191.715 302.151 192.788 303.344 193.772L302.484 194.518C301.885 194.138 301.321 193.813 300.705 193.461C300.171 194.199 300.358 194.682 300.405 195.783C299.372 194.85 298.213 193.63 297.21 192.631Z" fill="black"/>
<path d="M311.462 203.03C312.505 201.703 312.306 201.496 313.634 201.116C314.635 201.562 315.069 202.539 315.395 203.544C314.013 204.625 313.194 205.04 311.376 204.414L311.026 203.827L311.462 203.03Z" fill="#FCFB09"/>
<path d="M500.947 217.388C503.462 218.78 514.594 225.604 516.572 227.149C519.436 228.962 540.387 242.728 542.013 242.744C548.335 240.605 555.951 237.448 562.284 235.031L603.492 219.198C603.677 220.513 603.851 221.83 604.015 223.149L604.555 225.409L605.021 230.181C605.641 240.779 607.277 250.687 607.999 261.084C605.423 259.924 596.362 253.813 595.505 253.807C586.611 253.746 574.76 253.735 565.959 254.727C559.054 255.506 544.275 262.666 537.398 265.397L532.436 267.559C532.055 267.766 530.767 268.478 530.575 268.371C525.431 265.534 510.076 250.034 506.981 246.807C505.597 245.971 501.947 242.572 500.901 241.134C500.89 241.118 502.107 237.925 502.071 237.137C501.765 230.557 501.42 223.961 500.947 217.388Z" fill="#9C03F2"/>
<path d="M500.947 217.388C503.462 218.78 514.594 225.604 516.572 227.149C514.306 227.416 509.713 231.391 512.694 233.971C513.673 231.777 514.37 229.079 517.191 229.513C519.489 231.225 519.849 233.587 520.92 236.26C520.557 236.844 519.977 237.84 519.553 238.329C518.397 239.285 515.338 242.049 514.573 243.301L514.733 243.976L513.915 245.086C515.067 246.129 519.386 248.698 520.955 249.59C524.022 251.331 535.488 264.61 537.398 265.397L532.436 267.559C532.055 267.766 530.767 268.478 530.575 268.371C525.431 265.534 510.076 250.034 506.981 246.807C505.597 245.971 501.947 242.572 500.901 241.134C500.89 241.118 502.107 237.925 502.071 237.137C501.765 230.557 501.42 223.961 500.947 217.388Z" fill="#7E13AE"/>
<path d="M512.695 233.971C513.673 231.777 514.37 229.079 517.191 229.513C519.49 231.226 519.849 233.587 520.92 236.26C520.557 236.844 519.977 237.84 519.554 238.329C518.397 239.285 515.338 242.049 514.573 243.301L514.733 243.976L513.915 245.086C515.068 246.129 519.387 248.698 520.955 249.59C524.022 251.332 535.488 264.61 537.399 265.397L532.436 267.559C531.248 267.129 530.102 264.043 529.181 263.303C524.214 259.31 515.242 247.829 509.094 247.51C508.184 245.803 508.305 245.27 508.361 243.368L508.564 243.825L508.522 240.398C508.507 238.932 508.23 236.8 509.169 235.845C509.909 236.779 509.881 238.983 509.927 240.282C511.972 239.022 511.955 236.953 512.816 234.697L512.695 233.971Z" fill="#870DC4"/>
<path d="M512.695 233.971C513.673 231.777 514.37 229.079 517.191 229.513C519.49 231.226 519.849 233.587 520.92 236.26C520.557 236.844 519.977 237.84 519.554 238.329C518.398 239.285 515.338 242.049 514.573 243.301C513.46 244.409 512.94 245.195 511.546 245.478C510.517 243.797 512.915 238.957 512.826 235.059L512.816 234.697L512.695 233.971Z" fill="#C11FEF"/>
<path d="M542.013 242.744C548.335 240.605 555.952 237.448 562.284 235.031L603.492 219.198C603.677 220.513 603.851 221.83 604.015 223.149L604.556 225.409C601.272 226.38 597.739 226.813 594.584 227.983C578.745 233.856 562.935 241.584 546.421 245.162C544.475 245.583 542.988 243.696 541.252 245.021C543.123 245.657 546.318 246.218 548.303 246.326L548.466 246.631C542.884 248.339 534.122 243.577 529.181 240.784C527.316 239.732 522.215 237.355 520.92 236.26C519.849 233.587 519.49 231.225 517.191 229.513C514.37 229.079 513.673 231.777 512.695 233.971C509.713 231.392 514.306 227.416 516.572 227.149C519.436 228.962 540.387 242.728 542.013 242.744Z" fill="#870DC4"/>
<path d="M542.013 242.744C548.335 240.605 555.952 237.448 562.284 235.031L603.492 219.198C603.677 220.513 603.851 221.83 604.015 223.149L603.378 223.443L603.716 224.505C602.652 225.033 600.731 224.858 599.55 224.795C595.658 224.586 562.099 238.715 555.016 241.144C552.682 241.943 549.672 243.351 547.25 243.605C545.937 243.743 544.322 243.391 543.013 243.207L543.952 243.16C543.162 242.646 543.006 242.72 542.013 242.744Z" fill="#7E13AE"/>
<path d="M520.92 236.26C522.215 237.356 527.316 239.732 529.181 240.785C534.122 243.577 542.885 248.34 548.466 246.631L548.303 246.326C546.318 246.218 543.123 245.657 541.252 245.022C542.988 243.696 544.475 245.584 546.421 245.162C562.935 241.584 578.745 233.856 594.584 227.983C597.739 226.813 601.272 226.38 604.556 225.409L605.022 230.182C603.136 228.652 603.005 228.824 600.507 228.889C598.077 228.954 594.669 228.186 592.791 230.175C593.584 230.678 594.701 230.715 595.672 230.844C593.99 231.866 586.252 234.658 584.053 235.155C582.822 235.433 580.705 235.022 578.55 235.71C578.955 236.08 578.905 236.1 579.119 236.577C578.148 237.6 576.383 238.934 574.924 238.874L575.579 237.301C574.312 237.678 572.964 238.442 572.142 239.462C570.776 241.16 564.988 242.859 562.74 243.533L562.377 243.353C563.188 242.636 562.985 242.989 563.334 241.999C559.925 240.946 559.225 243.171 557.076 244.926C556.204 245.638 553.835 245.438 552.985 246.329L553.145 247.205C544.325 250.02 535.442 247.576 527.434 243.524C525.936 242.765 520.561 239.466 519.554 238.329C519.977 237.84 520.557 236.844 520.92 236.26Z" fill="#7E13AE"/>
<path d="M164.806 178.656C168.299 178.761 170.534 179.041 173.974 179.596C178.831 180.235 182.678 180.75 187.477 181.811C190.459 187.582 192.457 192.595 197.304 196.967C190.663 199.202 183.046 200.769 176.897 203.028L170.098 189.433C168.287 186.058 166.658 182.188 164.806 178.656Z" fill="#7C0EBA"/>
<path d="M164.806 178.656C168.299 178.761 170.534 179.041 173.974 179.596C170.919 180.416 169.796 186.748 170.098 189.433C168.287 186.058 166.658 182.188 164.806 178.656Z" fill="#670E97"/>
<path d="M348.345 219.042C350.599 220.509 351.65 221.104 354.087 222.228C352.592 225.539 344.523 247.733 343.239 248.478L342.252 248.076C339.736 246.838 337.846 246.045 335.226 245.031C339.591 237.251 344.376 227.134 348.345 219.042Z" fill="#7716A5"/>
<path d="M317.748 281.671C318.926 282.684 321.382 284.41 321.733 285.738C321.09 286.555 320.627 286.364 319.318 286.577L314.617 287.419L317.748 281.671Z" fill="#7E13AE"/>
<path d="M694.542 272.926C699.618 267.571 708.818 269.571 707.395 278.033C704.731 290.191 686.59 282.458 694.542 272.926Z" fill="#C11FEF"/>
<path d="M694.542 272.926C695.399 277.5 696.146 281.998 702.137 280.9C704.606 280.448 706.061 278.182 707.395 278.034C704.731 290.191 686.59 282.458 694.542 272.926Z" fill="#DB3DE9"/>
</svg>
